<?xml version="1.0" encoding="utf-8"?>
<!-- Generator: Adobe Illustrator 21.0.1, SVG Export Plug-In . SVG Version: 6.00 Build 0)  -->
<svg version="1.1" xmlns="http://www.w3.org/2000/svg" xmlns:xlink="http://www.w3.org/1999/xlink" x="0px" y="0px"
	 viewBox="0 0 664.1 505.6" style="enable-background:new 0 0 664.1 505.6;" xml:space="preserve">
<style type="text/css">
	.st0{fill:#8E3F04;}
	.st1{fill:url(#SVGID_1_);}
	.st2{fill:#BF9AB0;}
	.st3{fill:#646CB4;}
	.st4{fill:url(#SVGID_2_);}
	.st5{fill:url(#SVGID_3_);}
	.st6{fill:#764019;}
	.st7{fill:#9AB7DB;}
	.st8{fill:#9CB7E1;}
	.st9{fill:#B1621A;}
	.st10{fill:none;}
	.st11{fill:#914727;}
	.st12{fill:#BF867F;}
	.st13{fill:#FFFFFF;}
	.st14{fill:#020202;}
	.st15{fill:#884032;}
	.st16{fill:#572542;}
	.st17{fill:none;stroke:#7F3823;stroke-width:1.2735;stroke-miterlimit:10;}
	.st18{fill:#AF1B2D;}
	.st19{fill:#EFE9D0;}
	.st20{fill:#B38D9C;}
	.st21{fill:#6E765C;}
	.st22{fill:#1C3D3B;}
	.st23{fill:#C3CEDB;}
	.st24{fill:#4D5338;}
	.st25{fill:#EAE1D6;}
	.st26{fill:#704F1B;}
	.st27{display:none;}
	.st28{display:inline;fill:#825147;}
	.st29{display:inline;fill:#825147;stroke:#3F262A;stroke-width:0.9229;stroke-miterlimit:10;}
	.st30{display:inline;fill:#825147;stroke:#3F262A;stroke-width:0.9752;stroke-miterlimit:10;}
	.st31{display:inline;}
	.st32{display:inline;fill:#BBB497;}
	.st33{display:inline;fill:#764019;}
	.st34{display:inline;fill:#BFB0C4;}
	.st35{display:inline;fill:#6D3E33;}
	.st36{display:inline;fill:#6B6764;stroke:#000000;stroke-width:1.0913;stroke-miterlimit:10;}
	.st37{fill:#D9CFD7;stroke:#000000;stroke-width:0.6637;stroke-miterlimit:10;}
	.st38{fill:#882315;}
</style>
<g id="Frame_and_Background">
	<rect x="-2" y="-0.9" class="st0" width="670.6" height="509.1"/>
	<linearGradient id="SVGID_1_" gradientUnits="userSpaceOnUse" x1="330.8783" y1="82.3334" x2="330.8783" y2="488.8702">
		<stop  offset="0" style="stop-color:#292208"/>
		<stop  offset="2.560103e-02" style="stop-color:#2E2709"/>
		<stop  offset="0.1935" style="stop-color:#4D4010"/>
		<stop  offset="0.3694" style="stop-color:#655415"/>
		<stop  offset="0.5547" style="stop-color:#776318"/>
		<stop  offset="0.7554" style="stop-color:#816B1A"/>
		<stop  offset="1" style="stop-color:#846E1B"/>
	</linearGradient>
	<polygon class="st1" points="643.6,488.9 18.4,488.9 18.1,183.9 643.6,82.3 	"/>
	<g id="Layer_23">
		<polygon class="st2" points="328.3,123 18.4,253.8 17.4,14.8 328,16.5 		"/>
		<polygon class="st3" points="16.9,325.2 334.8,145.5 337.2,111.3 18.5,252.5 		"/>
		<linearGradient id="SVGID_2_" gradientUnits="userSpaceOnUse" x1="327.3229" y1="108.2196" x2="645.1741" y2="108.2196">
			<stop  offset="0" style="stop-color:#71506A"/>
			<stop  offset="0.1405" style="stop-color:#88667F"/>
			<stop  offset="0.327" style="stop-color:#A07D95"/>
			<stop  offset="0.5247" style="stop-color:#B28DA4"/>
			<stop  offset="0.739" style="stop-color:#BC97AD"/>
			<stop  offset="1" style="stop-color:#BF9AB0"/>
		</linearGradient>
		<polygon class="st4" points="643.6,199.9 328.4,131.7 327.3,16.5 645.2,17.1 		"/>
		<linearGradient id="SVGID_3_" gradientUnits="userSpaceOnUse" x1="328.4437" y1="158.8011" x2="643.7507" y2="158.8011">
			<stop  offset="0" style="stop-color:#2C2F4F"/>
			<stop  offset="6.759250e-02" style="stop-color:#35385E"/>
			<stop  offset="0.2282" style="stop-color:#464B7D"/>
			<stop  offset="0.3966" style="stop-color:#535A95"/>
			<stop  offset="0.5738" style="stop-color:#5D64A7"/>
			<stop  offset="0.766" style="stop-color:#626AB1"/>
			<stop  offset="1" style="stop-color:#646CB4"/>
		</linearGradient>
		<polygon class="st5" points="643.8,202.3 329.6,149.5 328.4,115.3 643.8,164.6 		"/>
	</g>
</g>
<g id="bed">
	<polygon class="st6" points="158.2,352.5 156.9,409.9 171.8,414.9 176.5,359 	"/>
	<polygon class="st6" points="172.5,359.4 171.5,373.2 431.5,472.2 432.7,454.4 	"/>
	<polygon class="st6" points="430.5,482.4 441.2,485.6 453.7,483.7 453.7,472.6 453.1,452.4 442.8,457.6 432.7,452.9 	"/>
	<polygon class="st6" points="530.2,396.2 531.1,432.1 534.4,432.4 545.6,424.1 544.7,387.6 	"/>
	<polygon class="st7" points="124.9,323.5 123.5,341.5 181.6,361.5 183.7,340.8 303.5,235.3 269.8,213.1 214.6,241.1 145.7,287.7 
		117.7,320 	"/>
	<path class="st8" d="M545.2,367.5l6.6,16.6c0,0-69.2,60.4-79.6,55.6c-0.6-0.3-12.9,8.4-13.2,8.5c-4,2.1-8,8.6-14.1,7.1
		c-9.7-2.5-56.7,10.1-66.1,6.2c-4.1-1.7-28.1,2.1-33,0c-8.5-3.8-12.3-0.7-20.1-3.6c-7.1-2.6-5.3-5.8-12.9-9.3
		c-9.7-4.5-13.6,0.2-21.5-4.3c-7-3.9-5.3-8.4-12.9-12.9c-4.6-2.8-5.6-1.4-17.9-4.3c-11.4-2.7-17.1-4.1-22.9-7.9
		c-4.6-3-6-5.2-10.8-6.5c-4.8-1.3-7.1-0.1-12.2-0.7c-4.9-0.6-8.1-2.3-14.3-5.7c-6.8-3.7-12.9-7.1-18.4-10.3c-3.2-1.8-4-5.9-1.8-8.8
		l0,0c1.7-2.3,1.6-5.4-0.3-7.6l0,0c-1.5-1.7-1.9-4.1-1.1-6.2l14.6-35.5c0.3-0.8,0.8-1.5,1.5-2.1l107.4-99c1.7-1.6,4.2-2,6.4-1.1
		l219.8,102.7l13.3,8.8L545.2,367.5z"/>
	<path class="st6" d="M423.1,478.8"/>
</g>
<g id="woman">
	<g id="Isolation_Mode">
		<g id="body_1_">
			<path class="st9" d="M393.1,296.4l-4.8-0.2l-8.3-0.4l-40.7-23.3l-8.3-4.6l-35.6-21c-4.6-2.7-10.2-3.5-15.4-2l0,0
				c-2,0.5-3.8,1.5-5.3,2.9l-10.8,9.9l-5.2,5.1c-1.6,1.6-3.8,7.5-6.1,7l-5.8-1.8c-2.6-0.5-3.3-1.6-4.5,0.9l-6.3,13.5l8.9,5.7
				c0.4,0.2,0.4,0.8,0.1,1.1l-8,8.3c-2.4,2.5-3.2,6.1-2.1,9.4l10.2,31.1l6.7,17.3l8.2,36.9l-1,4.9l-6.7,11.3l-1.5,4.7l1.6,1.5
				l5.8-6.2l1.8,2.5l1.2,12.8l0.3,2.1l2.2-0.1l1.8-10.5l1,0.3l0.9,9.9l0.7,2.2l2.2-0.7l0.6-5.8l-0.6-6.5l1.6,4.3l0.1,4.4l0.9,4.6
				l2.2-3.9l-0.4-8.3v-3.6l2.4,5.6l1.5,2.5l1.6-0.4l-2.1-9.2l-0.4-8.3L273,395l-1.9-23.1l-0.3-13.1l-1.9-13.2l-5.3-15.4l-3.4-17.2
				l-3.4-5.3l4.4,1.2c1.6,0.9,3.9,2.5,5.3,5.2c2.4,4.8-1,7.3,3,11.9c3.2,3.7,8.1,5.3,12.9,4.6c8.3-1.1,6-7.1,10.4-8.6
				c1.3-0.4,3.5-0.6,8,2.2c7,4.4,10.7,10.4,12.6,13.5c8.6,14,13,21,14.2,21.7c4.6,2.7,10.7,2.3,35.1-8.6
				c21.2-9.5,32.8-8.9,37.4-18.7c1.4-2.9,1.2-7.1,1.9-7.1c0.8,0,0.1,7,2.5,15.6c2,7.1,5.3,12.3,6.7,14.4c5.9,8.6,10.8,9.8,11.6,16.2
				c0.5,4-1.3,5.1,0,7.6c2.4,4.7,11,5.8,17.1,4c1.9-0.6,6-1.8,6.4-4.3c0.5-3.2-5.7-4.5-10.1-10.1c-2.8-3.5-3.1-6.5-4.6-25.3
				c-0.5-6.7-1.1-14.5-1.8-22.3c-1.7-17.7-2.7-20.4-4.9-22.6c-6.3-6.6-17.6-5.1-19.5-4.9c-4.2,0.6-32.3,11-41.1,11.4"/>
			<path class="st9" d="M426.4,299.8l30.4,12c0.1,0,0.1,0,0.2,0.1l17,2.2h0.1l25.6-0.2c0.2,0,0.5-0.1,0.7-0.3l6.8-6.8
				c0.1-0.1,0.2-0.2,0.2-0.3l1.1-2.7c0.1-0.2,0.3-0.9,0.5-1l1.6-0.3l-1.4,2.3l0.5-0.1l1.3-0.3l1.2-1.3l0.1-0.1l1.7-1.4l1,0.1
				l-0.4,1.7c0,0.2-0.1,0.3-0.2,0.4l-0.8,0.9l0.3,0.5l0.9-0.2l1.7-3.6l1.1-0.5l0.9,0.8l-1.2,2.6c0,0,0,0.1-0.1,0.1l-1.4,2.3h0.7
				l1.1-1.5c0.1-0.1,0.1-0.2,0.2-0.3l1-3.6c0.1-0.3,0.4-0.6,0.7-0.7l0.9-0.2c0.4-0.1,0.9,0,1.2,0.3l1.3,1.3c0.2,0.2,0.3,0.4,0.3,0.6
				l0.2,1.9c0,0.2,0,0.5-0.2,0.7l-0.7,0.9c0,0.1-0.1,0.1-0.1,0.2l-0.6,1.1c-0.1,0.2-0.1,0.4-0.1,0.7l0.3,1.2l-0.3,0.9l-5.1,6.5
				c0,0,0,0.1-0.1,0.1c-0.8,0.8-2,2.1-2.9,3.9c-0.2,0.3-0.7,1.4-1.2,3.4c-1.3,4.7-0.4,5.6-1.5,7.3c-1.2,1.7-3.6,2.6-5.6,2.5
				c-2.6-0.2-3.3-2-6.3-3.2c-1.7-0.7-3-0.7-7.3-0.5c-11.8,0.6-16,1.2-20,2.2c-1.6,0.4-3.2,0.8-5.1,1.9c-3,1.7-4.1,3.5-5.4,4.4
				c-5,3.6-14.1-2.4-16.2-3.7c-3.8-2.4-4-3.6-8-5.7c-3.6-1.9-6.9-2.7-9.1-3.1"/>
			<line class="st10" x1="396.8" y1="300.4" x2="392" y2="296.5"/>
			<polygon class="st9" points="512.4,301.4 513.6,301.3 512.3,303.5 511,303.8 			"/>
		</g>
	</g>
	<path id="head_4_" class="st9" d="M242.2,272.8L242.2,272.8c0.3-2.4,0.7-6.9-1.6-11.6c-4.9-10.4-17.8-11.7-20-11.9
		c-3.4-0.3-13.4-1.4-17.8,5c-3.6,5.2-1.3,12.2-0.6,14.4c1.9,5.8,5.8,9.2,7.5,10.6c1.7,1.4,7,5.5,15,5.9c5.5,0.3,9.7-1.2,11.9-2.2"/>
	<g id="head_3_">
		<g id="face">
			<path class="st11" d="M214.7,264.7L214.7,264.7c1.2-0.3,2.2-1.1,2.8-2.2l1.2-2.3c0.4-0.7,0.9-1.3,1.6-1.7l4.7-2.8l-3,0.5
				c-0.6,0.1-1.2,0.4-1.8,0.7l-2.4,1.7c-0.7,0.5-1.2,1.1-1.5,1.9L214.7,264.7z"/>
			<polygon class="st11" points="220.1,266.2 221.6,264 222.7,261.7 223.3,260.4 223.9,260.3 222,264.1 220.6,266.2 220.5,266.4 			
				"/>
			<polyline class="st11" points="222.1,265.2 223.5,263.7 223.7,260.3 224.2,260.6 223.9,263.5 222.9,265 221.4,266.1 220.4,266.2 
							"/>
			<path class="st12" d="M231.4,274.1c0-0.5-2.1-0.9-4-0.5c-0.6,0.1-1.4,0.3-1.7,0.9c-0.1,0.2-0.1,0.3-0.3,1.2c-0.1,0.6-0.2,1-0.3,1
				c-0.4,0.6-1.3,0.2-1.9,0.9c-0.4,0.5-0.4,1.1-0.4,1.3c0,0.4,0.2,0.8,0.7,1.6c0.3,0.5,0.4,0.6,0.5,0.7c0.2,0.1,0.5,0,1.2-0.2
				c0.4-0.1,0.5-0.2,0.5-0.2c0,0,0.1-0.1,0.2-0.1c0,0,0.1,0,0.1,0c0.2,0,0,0.7,0.3,1c0.3,0.4,1.1,0.3,1.8,0.1c0.6-0.2,1-0.8,1.8-2
				c0.6-0.8,0.9-1.2,1.1-1.8c0.4-1.1,0.4-1.9,0.3-2.3c0-0.2-0.1-0.8-0.3-0.8c-0.2,0-0.4,0.8-0.9,2c-0.1,0.2-0.7,1-1.9,2.6
				c-0.4,0.5-0.6,0.9-1.1,0.9c-0.3,0-0.4-0.2-0.9-0.3c-0.8-0.2-1.2,0.3-1.6,0.1c-0.4-0.2-0.4-1-0.1-1.6c0.4-0.7,1.2-0.5,1.8-1.2
				c0.6-0.8,0.1-1.4,0.7-2c0.6-0.6,1.4,0,3.1-0.6C230.6,274.7,231.4,274.4,231.4,274.1z"/>
		</g>
		<polyline class="st13" points="223.7,261 220.9,265.9 223.1,264.4 223.7,261 		"/>
		<polygon class="st14" points="223.4,262.3 221.5,265.7 223.6,263.9 		"/>
	</g>
	<g id="hair">
		<path class="st14" d="M229.3,241.9c-1.5-2.6-10.3-5.7-13.6-5.8c-1.4-0.1-12.3,0-21.3,7.5c-0.8,0.7-7.8,6.6-6.4,10.4
			c0.2,0.7,0.9,1.8,0.6,2.2c-0.4,0.4-1.7-0.7-3-0.8c-1-0.1-2.7,0.4-6.1,6.3c-4.1,7-6.3,10.9-6.2,14.9c0,0.8,0.1,2.6-1,3.9
			c-0.8,0.8-1.6,0.7-2.5,1.4c-1.4,1.1-1.7,2.8-2,3.9c-1.4,5.4-5.6,8.6-5.2,8.9c0.4,0.3,5-2.2,6.2-6.6c0.4-1.7,0.3-3.3,1.7-4.9
			c0.9-1.1,2.3-2,2.4-1.8c0.1,0.1-0.2,0.5-0.7,1.4c-0.6,1.1-0.8,1.9-1.1,2.7c-0.4,1.1-1.5,3.4-3.6,8c-2.1,4.5-2,4.3-2.2,4.7
			c-1.4,4.1-1.2,7.8-0.9,7.9c0.2,0,0.4-2.7,1.7-7.3c1.2-3.9,2.1-6.8,4.2-9.3c0.8-1,1.9-2,3.4-4.2c0.7-1,1.2-1.8,1.3-1.7
			c0.2,0.1-0.6,1.6-1.7,4.6c-0.4,1.1-0.6,1.6-0.8,2.4c-0.5,1.8-0.8,3-0.6,4.4c0.2,1.6,0.9,1.8,0.8,3.1c-0.1,0.9-0.4,1.4-1,2.4
			c-1.2,2.3-1.8,4.7-1.7,4.8c0.3,0.2,3.3-2.6,3.8-6.5c0.4-3.1-1.1-3.8-0.4-6.6c0.2-0.6,0.3-0.9,3.2-5.2c2.6-3.8,3.1-4.5,3.3-4.5
			c0.2,0.1-0.3,1.5-0.8,2.6c-1,2.1-1.7,2.1-2.2,3.5c-0.5,1.1-0.3,2.7-0.1,5.9c0.1,1.5,0.3,3.6,0.6,3.6c0.2,0,0.5-1.1,0.6-2
			c0.2-2.6-1-3.3-0.6-4.9c0.3-1.6,1.6-1.4,3.2-3.9c1.4-2.2,1.5-4.2,1.7-4.1c0.3,0.1-0.2,4.1-0.3,4.6c-0.3,2-0.5,3.1-1,6.1
			c-0.4,2.1-0.6,3-0.5,3c0.2,0.1,1.3-2.3,1.8-3.8c2.6-7.5-0.4-15.2-0.3-15.2c0.1,0,0.8,4.8,2,10c0.2,0.9,0.7,2.7,0.4,5.1
			c-0.2,1.5-0.6,2.7-0.7,3c-1.1,2.9-3.3,5.5-4.7,5.3c-0.2,0-0.6-0.1-0.8,0.1c-0.1,0.2,0,0.6,0.2,0.8c0.4,0.4,1.1,0.2,1.4,0.1
			c1.7-0.5,3.1-2.6,3.6-3.3c2.1-3.2,3.1-4.8,3.3-6.7c0.3-2.8-0.9-5-0.8-5c0.2-0.1,1.3,2.8,2.1,5.8c0.2,0.7,0.4,1.4,0.5,2.2
			c0.3,1.9,0.5,2.8,0.2,3.8c-0.6,2.2-2.7,3.2-2.4,3.7c0.2,0.3,1.1,0,1.3,0c2.1-0.6,1.8-4,3.3-4.3c0.4-0.1,0.9,0.1,1.1,0.3
			c0.1,0.1,0.6,0.7,0.2,2.4c-0.6,2.4-1.7,2.5-2,3.8c-0.6,2.9,4.1,4.9,3.4,8.2c-0.2,0.9-0.7,1.6-0.4,1.8c0.3,0.2,1.6-0.5,2-1.5
			c0.5-1.1,0-2.2-0.8-4.2c-0.6-1.6-0.9-1.5-1.1-2.4c-0.5-2,0.3-3.8,0.6-4.6c0.7-1.5,1.2-1.4,2.7-3.6c0.5-0.6,0.6-0.9,2.1-3.4
			c2.2-3.8,3.4-5.7,3.5-5.6c0.3,0.1-0.2,2.4-1.3,4.5c-0.4,0.7-0.5,0.8-1.6,2.7c-1.1,2-1.7,2.9-1.6,3c0.2,0.2,2.1-1.7,3.7-3.8
			c1.3-1.8,1.9-2.7,2.1-3.9c0.3-1.8-0.4-3.1,0.6-4.2c0.3-0.3,0.8-0.7,1.1-0.6c0.6,0.3,0.1,2.7-0.5,4.3c-1.3,3.8-3.5,5.8-3.3,6
			c0.2,0.2,2.2-1.1,3.7-3.1c0.7-0.9,3.1-4,2.4-7.1c-0.1-0.7-0.4-1.3-0.3-1.4c0.2-0.1,1.6,1.7,2.1,3.5c1.1,4.5-4.2,8.9-3.7,9.4
			c0.4,0.3,2.9-1.2,4.4-3.6c0.2-0.3,1.9-3.2,1.3-6.6c-0.3-1.4-0.8-2.3-0.8-2.3c0,0,2.7,3.9,2.6,8.2c-0.2,5.8-5.3,10-5.1,10.1
			c0.2,0.1,2.8-4.1,7.8-7.4c2.3-1.5,3.3-1.6,4.5-3.1c1.7-2.1,3-5.7,1.9-8.6c-1.9-5.1-9.9-3.4-15.3-9.1c-1.1-1.2-4.7-5.4-4.3-11.3
			c0.4-6.2,4.1-10.8,5.2-11.6c3.3-2.7,10.5-1.9,16.7-2.6C230.3,250.4,232.7,247.5,229.3,241.9z"/>
		<path class="st14" d="M203,276.4"/>
		<path class="st14" d="M233.5,256.5"/>
		<path class="st14" d="M231.5,254.7c-1-1.2-2.2-4.6-4.8-5.7c-1.7-0.7-4.6,0.4-11.9,2.1c-7,1.6-10.4,2.4-12.3,4.4
			c-5.1,5.2-4.3,14.7-1.6,17.3c1.2,1.2,2.5,2.1,2.5,2.1c2.2,1.6,2.9,1.4,3.5,2.4c0.9,1.5-0.2,2.5,0.9,4.3c0.1,0.1,1.2,2,2.3,1.7
			c0.6-0.1,1.2-0.9,1.1-1.5c-0.2-0.8-1.9-0.4-2.7-1.5c-0.9-1.3,0.7-3-0.3-4.3c-0.5-0.7-1-0.4-3-1.5c-1.3-0.7-2-1.1-2.1-1.8
			c-0.2-1.3,1.6-2.7,2-2.4c0.3,0.2-0.3,0.9,0.1,1.8c0.4,0.9,1.6,1.6,2,1.3c0.3-0.2,0.3-0.7,0.2-1.1c-0.2-0.7-0.9-0.9-1.4-1.3
			c-0.4-0.4-0.6-1-0.4-4.3c0.3-3.7,0.6-3.9,0.8-4c0.6-0.2,1.4,0.9,1.6,1.2c0.7,1,0.8,2.1,0.8,2.4c0,1.3-0.6,2.1-0.4,2.2
			c0.2,0.1,1.4-0.8,1.6-2c0.4-2.5-3.6-4.5-3.1-5.5c0.3-0.5,1.8-0.6,2.4,0.1c0.5,0.6,0.2,1.5,0.6,1.6c0.3,0.1,0.9-0.2,1.1-0.6
			c0.4-1.3-3.7-2.9-3.4-4.3c0.2-1,2.9-1.8,4-0.9c0.8,0.7,0.2,1.8,1.3,3.3c0.7,1,1.9,1.9,2.4,1.6c0.3-0.2,0.5-0.6,0.4-1
			c-0.1-0.5-0.9-0.7-1.4-0.9c-2-0.9-3-4.9-1.7-6.2c0.8-0.8,2.5-0.7,3.1,0c0.4,0.5-0.1,1,0.2,1.9c0,0,0.2,0.7,2.9,2.5
			c-0.4-0.5-0.9-1.3-1.3-2.4c-0.4-1-1-3.2-0.4-3.5c0.4-0.2,1.3,0.4,1.7,1.1c0.7,1,0.1,1.8,0.8,2.5c0.7,0.8,2.1,1,2.5,0.5
			c0.2-0.2-0.4-0.2-0.6-0.5c-0.4-0.4-0.5-0.2-1.2-0.5c-1.3-0.7-1.5-3.8-1-4c0.4-0.2,1.1,1.6,3.2,2.6c1.2,0.6,2,0.5,4.1,0.8
			c1.7,0.2,3.9,0.5,6,1.3c3.8,1.4,5.6,3.8,6,4.6c0.3,0.6,0.8,1.5,0.8,2.2c0,0.1,0,0.2,0,0.2c0.1,0,0.6-1,0.7-1.8
			c0.1-2.1-2.9-3.5-2.6-3.9c0.2-0.3,1.7,0.1,2.7,1.1c0.4,0.4,1,0.9,1.2,1.8c0.1,0.3,0.1,0.5-0.3,2.8c-0.2,1.1-0.2,1.4,0,1.6
			c0.3,0.2,0.9,0.1,1.3-0.2c0.9-0.8,0.1-3,0-3.3c-1.7-4.7-8.8-7.6-9.2-7.8c-0.4-0.2-1.5-0.6-2.1-1.6c-0.1-0.1-1.2-1.8-0.4-3.6
			c0.6-1.4,2-1.8,2.3-1.9c2.2-0.7,4.3,0.8,5.8,1.8c0.7,0.5,2.4,1.7,3.5,3.8c0.9,1.8,1.3,3.7,1.4,4.5c0.2,1.3,0.1,2.1,0.3,2.1
			c0.3,0.1,1.3-1.8,1.5-3.8c0.2-2.7-1.4-4.8-3.1-7.1c-1.7-2.2-3.3-3.6-5.2-5.2c-1.8-1.5-2.7-2.3-4.2-3.1c-1.6-0.9-3.2-1.4-7.4-2.2
			c-2.4-0.5-5.5-1-9.3-1.5"/>
		<ellipse class="st15" cx="303.7" cy="293.7" rx="2.8" ry="2.3"/>
		<ellipse class="st15" cx="283" cy="322" rx="3.2" ry="1.8"/>
		<ellipse class="st16" cx="303.4" cy="293.8" rx="0.9" ry="0.5"/>
	</g>
	<g id="breastes">
		<path class="st17" d="M304.6,269.2c2,1.8,8.7,8.2,8.9,17.5c0.1,2.1,0.2,5.7-2.3,9.1c-2.6,3.6-6.5,4.7-7.7,5
			c-1.7,0.4-6.4,1.6-9.3-0.8c-2.2-1.8-1.9-4.5-5.2-7.1c-0.9-0.7-1.6-1.1-2.3-0.8c-1.3,0.4-1.4,2.9-1.5,3.3c-0.2,3.1,1.7,5,4.6,8.3
			c1.6,1.8,5.9,7.4,4.4,12c-0.7,1.9-1.2,4.8-3,8c-3.2,5.9-8.5,7.3-9,7.3c-4.1,0.5-9.5-0.7-12-4.4c-1.4-2-0.6-2.8-2.9-8.7
			c-1.1-2.8-1.7-4.4-3.1-6c-2.1-2.6-4.8-3.8-6.4-4.4"/>
	</g>
	<g id="shoe">
		<path d="M420.4,379.1c-0.6,0.5-0.4,1.9,0,4.7c0.4,2.7,0.6,4.1,1.3,5c1.6,2,3.6,1,5.2,3c0.7,0.8,0.4,1,1.7,4.7
			c1.2,3.4,1.8,3.9,2.1,4.1c1.5,1.2,4.2,1.4,5,0.4c0.9-1.1-0.9-2.6-0.4-5.2c0.3-1.6,1.4-3.7,3.2-4.3c2.8-0.9,6.6,2.1,8.4,4.5
			c0.9,1.2,1.2,2,2.2,2.4c1.6,0.7,2.8-0.4,5.2-0.9c3.8-0.9,4.4,0.8,7.8,0c2.6-0.6,6.6-2.4,6.7-5.2c0.1-1.5-1-3-2.1-3.7
			c-1.3-0.9-2.4-0.7-4.1-0.9c-0.6-0.1-6.7-0.8-9.3-4.5c-1.5-2.1-0.7-3.5-2.6-5c-0.1-0.1-2.3-1.9-4.3-1.1c-1.1,0.4-1.2,1.3-2.8,3.2
			c-1,1.2-2.2,2.3-3,2.8c-2.9,1.9-7,0.5-11.4-0.9C424,380,421.6,378,420.4,379.1z"/>
		<path d="M480.1,373.5"/>
	</g>
	<ellipse class="st16" cx="283.5" cy="322.4" rx="1.1" ry="0.8"/>
	<g id="nail_polish">
		<polygon class="st18" points="520.2,301 519.4,302.6 522.4,304.1 523,302.8 521.6,301.4 		"/>
		<polygon class="st18" points="517.1,301.9 517.7,302.3 518.3,301.6 517.6,300.9 516.7,301.1 516.7,301.7 		"/>
		<polygon class="st18" points="513.9,302.2 514.6,302.6 515.1,301.9 514.2,301.4 		"/>
		<polygon class="st18" points="511.5,302.4 511.9,302.4 511.6,302.9 511.2,302.8 		"/>
		<polygon class="st18" points="509.4,303 510.1,302.9 509.7,303.6 508.8,303.7 		"/>
	</g>
	<polygon class="st11" points="212.3,279.4 213.8,277.2 214.9,274.9 215.5,273.6 216.1,273.6 214.2,277.3 212.7,279.5 212.6,279.6 	
		"/>
	<polyline class="st11" points="214.3,278.5 215.7,277 215.9,273.6 216.4,273.8 216,276.7 215.1,278.2 213.6,279.3 212.6,279.5 	"/>
	<polyline class="st13" points="215.9,274.3 213.1,279.1 215.3,277.7 215.9,274.3 	"/>
	<polygon class="st14" points="215.6,275.5 213.6,278.9 215.8,277.1 	"/>
	<g id="flower">
		<path class="st19" d="M406.5,344.4c-0.3,7,0.8,9.3,2.3,9.6c0.9,0.2,2.2-0.2,2.6,0.2c0.5,0.5-0.7,1.3-0.5,2.2
			c0.2,1.2,2.3,1.2,4.3,2.6c2.9,2.1,1.6,4.8,4.4,6.1c0.4,0.2,1.1,0.4,2.8,0.5c2.9,0.2,11.6,0.1,13.1-2.9c1.2-2.5-3.7-4.6-2.5-8.6
			c0.2-0.7,0.5-1.3,0.7-2.5c0.2-2.1-0.6-4-0.7-4.1c-0.5-1.2-0.9-1.3-1-2.1c-0.1-1.5,1.3-2.2,1-2.6c-0.6-0.9-6.8,1.2-12.8,2
			C415.2,345.5,410.5,345.1,406.5,344.4z"/>
		<path class="st20" d="M423.2,367.8c-0.7,1.4-1,2.1-1.3,2.5c-0.6,0.7-1,0.9-0.8,1.2c0.3,0.6,2,0.5,2.1,1c0.1,0.3-0.5,0.4-1.1,1
			c-0.3,0.3-1.1,1.1-0.8,1.7c0.3,0.7,1.4,0.6,1.8,1.4c0.4,0.7-0.2,1.3,0,1.4c0.2,0.1,1.2-1,1.5-2.4c0.1-0.6,0.1-1.1,0-1.9
			c-0.2-1.6-0.6-1.9-0.3-2.9c0.1-0.4,0.3-0.7,0.7-1.2c0.7-1,1-1.1,1.1-1.6c0.3-1-1-2.3-1.6-2.2C424.1,365.9,424,366.2,423.2,367.8z"
			/>
		<path class="st20" d="M433.4,362.7c-0.3,0.4,0.2,0.6,0.7,1.9c0.8,2.2-0.1,3.1,0.8,3.7c1.1,0.8,2.8-0.3,4.8,0.6
			c1.7,0.8,1.8,2.2,2.3,2.1c0.6-0.1,0.6-2.4,0.2-4.3c-0.4-1.7-0.6-2.5-1.5-3.2C438.5,361.7,434.1,361.8,433.4,362.7z"/>
		<path class="st21" d="M429.5,363c0.9,0.1,1.3-1.4,2.3-1.4c0.6,0,0.6,0.5,1.8,1.4c1.3,0.9,2.1,1,2.1,1.5c0,0.6-1,0.7-1,1.4
			c0,0.8,1.8,1.2,1.6,1.7c-0.1,0.4-1.5,0.2-2,0.9c-0.4,0.6,0.2,1.3,0,1.4c-0.3,0.1-1.4-1.4-2.1-1.2c-0.5,0.1-0.2,1-1,1.4
			c-0.5,0.3-0.9-0.1-2.1,0c-1.4,0.1-1.9,0.6-2.5,0.4c-0.6-0.3-0.2-1.1-0.8-1.5c-0.8-0.5-2.4,0.4-2.8,0c-0.3-0.3,0.6-0.8,0.3-1.5
			c-0.2-0.6-1.1-0.7-1-1c0.1-0.4,1.4-0.2,1.6-0.6c0.2-0.4-0.9-0.7-1-1.6c-0.1-0.5,0.2-1.1,0.7-1.2c0.8-0.3,1.7,1,2.6,0.7
			c0.9-0.2,1-1.6,1.6-1.6C428.6,362,428.8,362.9,429.5,363z"/>
		<path class="st22" d="M430,364.9c1,0.2,1.6,2,0.7,2.6c-0.8,0.5-2.5,0.1-2.9-0.6C427.4,365.9,429.1,364.7,430,364.9z"/>
	</g>
</g>
<g id="banner">
	<path id="banner_2_" class="st23" d="M60.5,114.4c1.2-1.3,8.3,6.9,20.6,9.1c6.2,1.1,11.6,0.3,15.4-0.7c4.9-2.1,12.3-5.4,20.9-10.3
		c16.9-9.6,20.8-15.2,36.1-24.1c10-5.8,18.7-10.8,31.1-13.9c13.8-3.5,25-2.7,42.6-1.6c23.9,1.5,25.8,4.7,37.4,2.5
		c6.3-1.2,7.2-2.5,31.1-14.6c18.9-9.6,28.6-14.5,38-17.7c5.3-1.8,16.4-5.4,31.1-7.6c8.8-1.3,20.1-3,35.1-1.7
		c16.7,1.4,29,5.6,33.7,7.4c11.7,4.3,15.2,7.5,27.4,14.3c16.2,9.1,38.5,21.6,64.7,20.9c8.1-0.2,20.1-0.6,31.7-7.6
		c3.9-2.3,5.7-4.2,10.1-6.3c1.1-0.5,4.5-2,9.7-3.1c7.9-1.7,17.8-2.2,18-0.8c0.3,1.5-11.4,3.2-26.2,11.9
		c-7.9,4.7-15.6,10.7-14.8,12.3c0.6,1.2,5.8-1.5,16.5-2.5c8.1-0.8,13.5-1.3,18.3,1.8c3.4,2.2,3.3,4,7.3,5.9
		c5.5,2.7,10.8,1.6,10.8,2.1c0,0.5-4.5,2.4-10.1,1.7c-6.9-0.8-11-5-18.1-4c-0.4,0.1-0.7,0.1-0.9,0.2c-5.5,1.1-9.3,3.5-10.5,4.3
		c-1.2,0.8-5.7,2.4-14.6,5.7c-11.6,4.3-26.2,2.5-40.6,0.6c-16.5-2.1-26.9-3.4-38.7-9.5c-3-1.5-5.4-3-21.3-11.7
		c-6.6-3.6-9.9-5.4-12.3-6.7c-10.1-5.3-19.9-10.4-29.2-13.3c-16.1-5-30.1-3.2-44.4-1.3c-3,0.4-15.4,2.1-31.1,7.6
		c-9.5,3.3-19.1,8.2-38,17.7c-23.9,12.1-24.8,13.4-31.1,14.6c-13.2,2.5-14.3-2.2-37.4-2.5c-13.1-0.2-25.5-0.3-38.7,5.7
		c-6.8,3.1-8,5.1-19,13.3c-12.9,9.5-30.3,22.3-52.6,30.4c-10.6,3.8-20,7.2-33,6.3c-14-0.9-26.9-6.2-26.6-7.6
		c0.3-1.3,12.3-0.4,13.6-0.3c5.8,0.5,7,1.1,10.5,0.7c6.1-0.7,11.5-3.8,11.2-4.9c-0.2-0.9-3.7,0.2-8.7-0.7c-6.7-1.2-11.3-5.1-14.7-8
		C64.8,123,59.4,115.5,60.5,114.4z"/>
	<g id="text">
		<g>
			<g>
				<path class="st24" d="M126.1,123c0.9,1.3,1.6,2.9,2.2,4.6c0.8,2.1,1.1,3.7,0.8,4.9c-0.3,1.4-1,2.5-2.3,3.3
					c-1.1,0.7-2.3,1-3.5,0.8c-1.4-0.2-2.6-0.8-3.8-1.9c-0.8-0.8-1.7-1.9-2.7-3.4c-0.5-0.7-1.1-1.9-2-3.5s-1.5-2.7-2-3.5
					c-0.1-0.1-0.3-0.3-0.5-0.5c-0.3-0.2-0.4-0.3-0.5-0.5c-0.3-0.4-0.1-0.9,0.3-1.6c0.4-0.5,0.8-0.9,1.3-1.3c0.6-0.3,0.9-0.4,1.2,0
					c0.1,0.2,0.2,0.5,0.2,0.9c0.1,0.4,0.1,0.8,0.3,1c0.4,0.6,1,1.7,1.6,3.1c0.7,1.4,1.2,2.5,1.6,3.1l1.9,3c0.6,0.9,1.3,1.6,2.1,2.1
					c1,0.6,1.9,0.7,2.8,0.1c1.6-1,1.8-3.2,0.4-6.5c-0.6-1.6-1.9-3.8-3.8-6.7c-0.7-1.1-1.4-1.8-2.1-2.3c-0.2-0.1-0.4-0.3-0.4-0.4
					c-0.2-0.3-0.3-0.6-0.2-1.1c0-0.4,0.2-0.7,0.5-0.9c0.3-0.2,0.7-0.3,1.2-0.3c0.5,0,0.8,0.2,1,0.4L126.1,123z"/>
				<path class="st24" d="M136.1,106.8c0.1,0.2,0.2,0.5,0.2,0.8c0,0.5,0.1,0.8,0.1,0.9c0.5,1.8,1,3.1,1.6,4.1l4.4,7
					c0.4,0.7,0.7,1.6,0.9,2.5c0.2,1.2,0,2-0.6,2.4c-0.9,0.6-2.3,0.4-4.1-0.6c-1.3-0.7-2.9-1.8-4.8-3.4c-1.2-1-2.4-2.1-3.5-3.1
					c1.4,3,2.4,4.9,3,5.9c1.3,2.1,2.2,3.2,2.6,3.3c0.4,0.1,0.7,0.3,0.8,0.4c0.2,0.3,0.2,0.7,0,1.1c-0.2,0.4-0.4,0.8-0.8,1
					c-0.5,0.3-1.1,0-2-0.7c-0.7-0.6-1.2-1.2-1.6-1.8c-0.2-0.3-0.4-0.7-0.8-1.2c-0.3-0.6-0.6-1-0.8-1.2c-0.4-0.7-1-1.7-1.6-3.1
					c-0.7-1.4-1.2-2.5-1.6-3.1l-1.9-3c0,0-0.1-0.1-0.1-0.1c-0.1,0-0.1-0.1-0.1-0.1c-0.2-0.3-0.2-0.7,0.1-1.2
					c0.2-0.4,0.5-0.7,0.9-0.9c0.8-0.5,1.6-0.6,2.3-0.3c0.2,0.1,0.5,0.4,1,1c0.3,0.4,0.6,0.7,0.9,1.1c0.9,1,2.6,2.6,5,4.6
					c2.9,2.4,4.6,3.4,5.1,3.1c0.2-0.1,0.1-0.4-0.2-0.9c-0.1-0.1-0.2-0.3-0.5-0.6c-0.2-0.3-0.4-0.5-0.5-0.6l-3.9-6.8
					c-0.6-1-1-2.1-1.3-3.3c-0.4-1.6-0.3-2.7,0.4-3.1c0.2-0.1,0.6-0.2,1.2-0.2C136,106.7,136,106.8,136.1,106.8z"/>
				<path class="st24" d="M156.2,104.9c1.5,2.3,2.2,4.7,2,7c-0.1,2.6-1.3,4.7-3.5,6.1c-0.6,0.4-1.4,0.7-2.3,0.9
					c-2,0.5-3.7,0.3-5.2-0.5c-1.3-0.7-2.5-2-3.7-3.9c-1.5-2.4-2.3-4.9-2.3-7.5c0-3,1.1-5.2,3.4-6.7c2-1.3,4.2-1.3,6.5-0.2
					C153.2,101.3,154.9,102.8,156.2,104.9z M153.8,106.2c-2.1-3.4-4.5-4.7-7.1-4c-0.3,0.1-0.5,0.2-0.8,0.4c-0.9,0.6-1.6,1.6-2,2.9
					c-0.6,2.2,0.1,5,2.3,8.4c0.2,0.3,0.5,0.7,1,1.2c1.1,1.1,2.1,1.7,3,1.9c1,0.2,2.2,0,3.4-0.8c1.7-1,2.4-2.6,2.2-4.8
					C155.6,109.8,154.9,108,153.8,106.2z"/>
				<path class="st24" d="M172.7,102.7c0.6,1,0.5,2.1-0.3,3.4c-0.6,1-1.5,1.9-2.6,2.6c-1,0.6-2.4,1.2-4,1.6
					c-2.1,0.5-3.4,0.4-3.9-0.4c-0.2-0.3-0.2-0.6-0.2-1c0.1-0.3,0.3-0.6,0.6-0.8c0.4-0.3,1-0.4,1.6-0.2c1,0.1,1.5,0.2,1.6,0.2
					c0.8,0,1.9-0.5,3.4-1.5c1.3-0.8,1.8-1.5,1.4-2.1c-0.3-0.5-1.4-0.8-3.2-0.9c-1.2,0-2.4,0-3.6,0c-1.6,0-2.8-0.2-3.8-0.6
					c-1.2-0.5-2.2-1.3-2.9-2.4c-0.9-1.4-1.3-3-1.1-4.7c0.2-1.8,0.9-3.2,2.3-4.1c1.2-0.8,2.4-1.1,3.7-0.9c1.2,0.1,2.4,0.7,3.3,1.8
					c0.3,0.4,0.9,1,1.6,1.8c0.2,0.2,0.4,0.4,0.5,0.5c0.4,0.6,0.6,1.1,0.6,1.7c0.1,0.7-0.1,1.2-0.6,1.6c-0.3,0.2-0.7,0.2-1.1,0.1
					c-0.4-0.1-0.7-0.3-0.9-0.6c-0.1-0.2-0.3-0.6-0.4-1c-0.2-0.5-0.3-0.8-0.5-1c-1.4-2.2-2.8-2.8-4.3-1.9c-0.8,0.5-1.3,1.3-1.4,2.3
					c-0.1,1,0.1,2,0.6,2.8c0.7,1.2,2.2,1.9,4.3,2.1c1.8,0.1,3.7,0.1,5.5,0.1C170.9,101.2,172.2,101.8,172.7,102.7z"/>
			</g>
		</g>
		<path class="st24" d="M211.6,87.3c0,0.3-0.1,0.7-0.2,1.2c-0.4,1.2-1.2,2.1-2.4,2.9c-1.1,0.6-2.3,1-3.7,1c-2.2,0.1-3.9-0.7-5.2-2.3
			c-1.1-1.4-1.7-3.2-1.7-5.5c-0.1-1.9,0.2-3.7,0.7-5.4c0.6-1.9,1.5-3.4,2.8-4.5c1-0.9,2-1.3,3.1-1.4c1.5-0.1,2.7,0.6,3.5,1.9
			c0.7,1,1.1,2.4,1.1,4c0,0.7-0.1,1.7-0.5,2.8c-0.4,1.4-0.9,2.1-1.4,2.1c-0.6,0-1.1-0.4-1.5-1.1c0.2-0.1,0.4-0.3,0.7-0.6
			c0.3-0.4,0.5-1.2,0.4-2.3c0-1.1-0.2-2-0.5-2.8c-0.4-1.1-1-1.7-1.8-1.7c-0.6,0-1.2,0.4-1.8,1.2c-0.5,0.6-0.9,1.2-1.2,1.9
			c-0.8,1.7-1.2,3.9-1.1,6.4c0.1,3.7,1.6,5.5,4.4,5.4c1.2,0,2.1-0.4,2.8-1.1c0.3-0.3,0.7-1,1.2-1.9c0.3-0.7,0.7-1.1,1.2-1.1
			c0.3,0,0.5,0.1,0.8,0.3C211.5,86.8,211.6,87,211.6,87.3z"/>
		<path class="st24" d="M227,81.7c-0.1,1.5-0.4,3-0.9,4.7c-0.6,2-1.3,3.4-2.1,4.1c-1,0.9-2.2,1.3-3.5,1.2c-1.2-0.1-2.2-0.5-3.1-1.3
			c-0.9-0.9-1.5-2.1-1.8-3.5c-0.2-1-0.2-2.4-0.1-4c0.1-0.8,0.2-2,0.4-3.7c0.2-1.6,0.4-2.9,0.4-3.7c0-0.1,0-0.4-0.1-0.6
			c-0.1-0.3-0.1-0.5-0.1-0.6c0-0.4,0.4-0.8,1.2-1c0.6-0.2,1.1-0.3,1.7-0.2c0.6,0,0.9,0.3,0.9,0.6c0,0.2-0.1,0.5-0.3,0.8
			c-0.2,0.4-0.3,0.6-0.3,0.9c-0.1,0.7-0.2,1.8-0.5,3.2c-0.3,1.4-0.5,2.5-0.5,3.2l-0.2,3.3c-0.1,1,0.1,1.9,0.4,2.7
			c0.4,1,1.1,1.6,2,1.7c1.8,0.1,3.1-1.4,3.9-4.7c0.4-1.5,0.7-3.9,0.9-7.1c0.1-1.2,0-2.1-0.3-2.9c-0.1-0.2-0.1-0.4-0.1-0.5
			c0-0.3,0.2-0.6,0.4-0.9c0.3-0.3,0.6-0.4,0.9-0.4c0.3,0,0.7,0.2,1.1,0.5c0.4,0.3,0.5,0.6,0.5,0.9L227,81.7z"/>
		<path class="st24" d="M244.3,88.8c-0.1,0.8-0.5,1.2-1.2,1.2c0,0.4,0.2,1,0.4,1.7c-0.1,0.4-0.2,0.7-0.6,0.9
			c-0.3,0.2-0.7,0.3-1.1,0.3c-0.3,0-0.7-0.2-1.1-0.4c-0.2-0.5-0.2-1-0.2-1.7c0-0.2,0-0.4,0.1-0.7c0-0.3,0.1-0.5,0.1-0.7
			c0,0.1-0.3,0.2-0.9,0.1c-1-0.1-2.1-0.2-3.4-0.2c-1.9-0.1-2.9,0-3.1,0.1c-0.2,0.2-0.4,1.1-0.6,2.8c-0.3,0.3-0.6,0.4-0.9,0.4
			c-0.4,0-0.7-0.2-1.1-0.6c-0.3-0.3-0.5-0.7-0.5-1c0-0.1,0.2-0.6,0.6-1.4c0.5-1.2,1.2-3,2.2-5.4c3-6.2,5.2-9.2,6.7-9.1
			c1.5,0.2,2.5,2,2.9,5.4c0.2,1.6,0.3,3.9,0.3,7.1c0.4,0.2,0.7,0.3,0.8,0.3C244.3,88.2,244.4,88.4,244.3,88.8z M240.8,87.4
			c-0.1-6.2-0.5-9.3-1.1-9.4c-0.5,0-1.5,1.3-3,4c-1.1,2-1.9,3.7-2.6,5.2c0.6-0.1,1.4-0.1,2.5-0.2C237.7,87,239.1,87.1,240.8,87.4z"
			/>
		<path class="st24" d="M262.9,78.8c0,0.2-0.1,0.4-0.4,0.7c-0.3,0.3-0.4,0.5-0.5,0.6c-0.8,1.4-1.2,2.6-1.4,3.6l-1.2,7.1
			c-0.1,0.7-0.4,1.4-0.9,2.1c-0.6,0.9-1.2,1.3-1.9,1.2c-1-0.2-1.9-1.1-2.6-2.7c-0.5-1.2-1-2.9-1.5-5c-0.2-1.3-0.5-2.7-0.7-4
			c-0.8,2.7-1.3,4.6-1.4,5.5c-0.3,2.1-0.4,3.3-0.1,3.7c0.2,0.4,0.3,0.6,0.3,0.8c0,0.3-0.3,0.6-0.7,0.7c-0.4,0.2-0.8,0.2-1.1,0.2
			c-0.5-0.1-0.9-0.6-1-1.6c-0.1-0.8-0.2-1.5-0.1-2.1c0-0.3,0.1-0.7,0.2-1.2s0.2-1,0.2-1.2c0.1-0.7,0.3-1.7,0.7-3
			c0.4-1.3,0.6-2.3,0.7-3l0.5-3c0,0,0-0.1,0-0.2c0-0.1,0-0.1,0-0.2c0-0.3,0.3-0.6,0.9-0.7c0.4-0.1,0.8-0.1,1.2-0.1
			c0.9,0.1,1.6,0.5,1.9,1.1c0.1,0.2,0.1,0.6,0.1,1.2c0,0.4,0,0.8,0,1.2c0,1.2,0.3,3.2,0.9,5.9c0.7,3.2,1.3,4.8,1.8,4.9
			c0.2,0,0.3-0.2,0.4-0.6c0-0.1,0-0.3,0-0.7c0-0.3,0-0.5,0-0.7l1.3-6.6c0.2-1,0.5-2,1-2.9c0.7-1.3,1.4-1.9,2.2-1.8
			c0.3,0,0.6,0.2,1,0.6C263,78.7,263,78.8,262.9,78.8z"/>
		<path class="st24" d="M275,75.9c0.1,0.3,0,0.5-0.1,0.7c-0.1,0.2-0.3,0.4-0.5,0.4c-0.1,0-0.4,0-0.7-0.1c-0.4-0.1-0.7-0.1-0.9,0
			c-0.6,0.1-1.1,0.2-1.4,0.3c-0.2,0-0.3,0.1-0.3,0.1c0,0,0,0.2,0,0.5c0,0.4,0.1,1,0.1,1.8c0.2,2.2,0.5,4.6,1.1,7.3
			c0.4,1.8,0.8,3,1.3,3.6l0.1,0.6c-0.2,0.2-0.4,0.3-0.6,0.4c-0.9,0.2-1.5-0.2-2-1.1c-0.2-0.4-0.5-1.3-0.7-2.7
			c-0.3-1.5-0.5-2.8-0.6-3.6c-0.1-0.4-0.2-1.3-0.3-2.7c-0.1-1.1-0.2-2-0.4-2.7l-0.1-0.7c-0.2,0.1-0.6,0.2-1.1,0.4
			c-0.4,0.2-0.8,0.3-1.1,0.3c-1,0.2-1.5,0-1.6-0.7c-0.1-0.3,0-0.4,0.1-0.5c0.1-0.4,1.2-0.9,3.1-1.5c1.5-0.5,2.7-0.8,3.6-1
			c0.7-0.1,1.3-0.2,1.8-0.1C274.5,75,274.9,75.3,275,75.9z"/>
		<path class="st24" d="M292.7,72.5c1.2,1.9,1.8,3.8,1.8,5.7c-0.1,2.2-1,3.9-2.8,5.1c-0.5,0.3-1.1,0.6-1.9,0.8
			c-1.6,0.5-3,0.4-4.3-0.3c-1.1-0.6-2.1-1.6-3.1-3.1c-1.3-1.9-1.9-3.9-2-6c-0.1-2.4,0.8-4.3,2.7-5.5c1.6-1.1,3.4-1.2,5.4-0.3
			C290.2,69.6,291.6,70.8,292.7,72.5z M290.7,73.6c-1.8-2.7-3.8-3.7-5.9-3.1c-0.2,0.1-0.4,0.2-0.7,0.3c-0.7,0.5-1.3,1.3-1.6,2.5
			c-0.5,1.8,0.2,4.1,2,6.8c0.2,0.2,0.4,0.6,0.8,0.9c0.9,0.9,1.7,1.3,2.5,1.5c0.9,0.2,1.8-0.1,2.8-0.7c1.3-0.9,1.9-2.2,1.8-4
			C292.2,76.5,291.7,75.1,290.7,73.6z"/>
		<path class="st24" d="M306.3,74.5c0.3,0.9,0,1.8-0.9,2.6c-0.7,0.7-1.6,1.2-2.6,1.5c-0.9,0.3-2.1,0.5-3.5,0.5c-1.7,0-2.7-0.4-3-1.1
			c-0.1-0.3-0.1-0.5,0.1-0.8c0.1-0.3,0.3-0.4,0.6-0.5c0.4-0.1,0.8-0.1,1.3,0.1c0.7,0.3,1.1,0.5,1.2,0.5c0.6,0.1,1.6,0,3-0.5
			c1.2-0.4,1.7-0.9,1.5-1.4c-0.2-0.5-0.9-0.9-2.3-1.4c-1-0.2-1.9-0.5-2.9-0.7c-1.2-0.4-2.2-0.8-2.9-1.2c-0.9-0.6-1.5-1.4-1.8-2.5
			c-0.4-1.3-0.4-2.6,0.1-3.9c0.5-1.4,1.4-2.3,2.7-2.8c1.1-0.4,2.1-0.4,3.1,0c1,0.4,1.7,1,2.3,2.1c0.2,0.4,0.5,1,0.9,1.8
			c0.1,0.2,0.2,0.4,0.3,0.5c0.2,0.5,0.2,1,0.2,1.5c-0.1,0.6-0.3,0.9-0.8,1.1c-0.3,0.1-0.6,0-0.9-0.1c-0.3-0.2-0.5-0.4-0.6-0.7
			c-0.1-0.2-0.1-0.5-0.1-0.9c0-0.4-0.1-0.7-0.1-0.9c-0.7-2-1.7-2.8-3-2.4c-0.7,0.2-1.3,0.8-1.6,1.6c-0.3,0.8-0.3,1.6-0.1,2.3
			c0.4,1.1,1.3,1.9,3,2.5c1.4,0.4,2.9,0.8,4.3,1.2C305.1,73,306,73.6,306.3,74.5z"/>
		<path class="st24" d="M340.5,48.4c0.1,0.3,0.2,0.6,0.2,0.9c0.6,3.6-0.4,5.9-3.3,7c-1.4,0.5-2.9,0.7-4.3,0.4l0.2,0.5
			c0.4,1,0.7,1.6,1,1.9c0.5,0.4,0.7,0.6,0.8,0.7c0.1,0.3,0.1,0.6-0.1,0.9c-0.2,0.3-0.4,0.5-0.7,0.6c-0.7,0.3-1.3,0.2-1.7-0.2
			c-0.2-0.2-0.5-0.7-0.9-1.4c-0.2-0.5-0.4-1-0.7-1.7c-0.1-0.2-0.2-0.6-0.3-1.1c-0.1-0.5-0.2-0.9-0.3-1.2l-0.6-1.5
			c-0.2-0.4-0.4-1.1-0.6-2c-0.2-0.9-0.4-1.5-0.6-1.9l-0.7-2c0,0-0.2-0.4-0.7-1.1c0.3-0.5,0.6-0.8,0.9-1c0.4-0.2,0.8-0.1,1.2,0
			c0.4,0.2,0.6,0.5,0.8,0.9c0,0.1,0.1,0.2,0.1,0.3c0.6-1.7,1.6-2.8,3.2-3.4c1.5-0.6,2.9-0.5,4.1,0.2c1.1,0.6,1.9,1.7,2.5,3.1
			c0,0.1,0.1,0.3,0.2,0.5C340.4,48.1,340.4,48.3,340.5,48.4z M338.2,48.9c-0.4-1-0.9-1.8-1.5-2.4c-0.8-0.8-1.7-1-2.6-0.6
			c-1.2,0.5-2,1.5-2.3,3.2c-0.3,1.5-0.3,2.8,0.2,4c0.8,2,2.2,2.6,4.4,1.8c1.2-0.4,1.9-1.2,2.1-2.4c0.1-0.6,0.1-1.7-0.2-3.2
			C338.2,49,338.2,48.8,338.2,48.9z"/>
		<path class="st24" d="M347.9,41.1c0,0.1,0,0.3-0.1,0.6c0,0.1,0,0.5,0.1,1.1c0.5,3.5,1.1,6.4,1.7,9c0.2,0.7,0.4,1.2,0.6,1.6
			c0.2,0.3,0.6,0.7,1.1,1.2c0,0,0,0.1,0.1,0.1c0.1,0.3-0.3,0.6-1.1,0.8l-0.2,0.1c-0.8,0.2-1.5-0.3-2-1.5c-0.6-1.4-1.2-3.5-1.9-6.1
			c-0.2-0.6-0.4-1.5-0.7-2.8c-0.3-1.2-0.5-2.2-0.7-2.8c-0.1-0.3,0-0.7,0.3-1.1c0.3-0.4,0.7-0.7,1-0.8c0.3-0.1,0.6,0,1,0.1
			C347.6,40.6,347.8,40.8,347.9,41.1z"/>
		<path class="st24" d="M367.5,44.3c0.7,2.9,0.4,5.3-1,7.3c1.4,1,2.3,1.9,2.8,2.7c0,0.7-0.3,1.1-0.8,1.2c-0.4,0.1-1.1-0.3-2-1.2
			c-0.9-0.9-1.4-1.4-1.6-1.3c-0.1,0-0.3,0.1-0.6,0.3c-0.3,0.2-0.5,0.3-0.6,0.3c-0.3,0.1-0.7,0.3-1.2,0.4c-2.2,0.6-4.1,0.3-5.5-0.8
			c-1.3-1-2.3-2.5-2.8-4.6c-0.6-2.2-0.5-4.3,0.2-6.3c0.8-2.3,2.4-3.7,4.7-4.3c2-0.5,3.8-0.1,5.5,1.4C366,40.8,367,42.4,367.5,44.3z
			 M365.2,44.9c-0.4-1.4-0.9-2.6-1.8-3.5c-1.1-1.2-2.3-1.6-3.7-1.2c-1.2,0.3-2.2,1.2-2.9,2.5c-0.6,1.2-0.9,2.5-0.8,3.7
			c0.1,0.6,0.2,1.2,0.4,2c0.4,1.5,1,2.6,1.9,3.3c1,0.9,2.3,1.1,3.8,0.7c0.3-0.1,0.6-0.2,1-0.4c-0.6-0.2-1.1-0.3-1.7-0.5
			c-0.8-0.2-1.2-0.5-1.3-0.8c-0.1-0.3,0-0.6,0.3-0.9c0.2-0.2,0.5-0.4,0.8-0.5c0.5-0.1,1.7,0.2,3.6,1.1
			C365.7,49,365.8,47.2,365.2,44.9z"/>
		<path class="st24" d="M383.3,42.8c0.2,1.3,0.2,2.7,0,4.1c-0.2,1.8-0.6,3.1-1.2,3.9c-0.8,1-1.8,1.5-3,1.7c-1.1,0.1-2.2,0-3.1-0.6
			c-1-0.6-1.8-1.5-2.3-2.6c-0.4-0.8-0.6-2-0.8-3.4c-0.1-0.7-0.2-1.8-0.3-3.2c-0.1-1.4-0.2-2.5-0.3-3.2c0-0.1-0.1-0.3-0.2-0.5
			c-0.1-0.2-0.2-0.4-0.2-0.5c0-0.4,0.2-0.7,0.9-1.1c0.5-0.3,1-0.4,1.5-0.5c0.6-0.1,0.9,0.1,0.9,0.4c0,0.2,0,0.4-0.2,0.8
			c-0.1,0.3-0.2,0.6-0.2,0.8c0.1,0.6,0.1,1.6,0.1,2.8c0,1.3,0,2.2,0.1,2.8l0.4,2.9c0.1,0.9,0.4,1.6,0.8,2.3c0.6,0.8,1.3,1.2,2.1,1
			c1.7-0.2,2.6-1.8,2.8-4.7c0.1-1.4,0-3.4-0.4-6.2c-0.1-1-0.4-1.8-0.8-2.4c-0.1-0.2-0.2-0.3-0.2-0.4c0-0.3,0-0.6,0.2-0.8
			c0.2-0.3,0.4-0.5,0.7-0.5c0.3,0,0.7,0,1.1,0.2c0.4,0.2,0.6,0.4,0.6,0.7L383.3,42.8z"/>
		<path class="st24" d="M400.2,50.5c0,0.3-0.1,0.5-0.2,0.7c-0.2,0.3-0.4,0.4-0.6,0.4c-0.1,0-0.2,0-0.3-0.1c-0.1,0-0.2-0.1-0.3-0.1
			c-0.7-0.1-1.7,0.1-3.1,0.4c-1.4,0.3-2.4,0.4-3.1,0.4c-2.6-0.2-3.7-2.3-3.4-6.2c0.3-3.1,0.6-5.5,0.9-7.3c0-0.2,0.1-0.4,0.1-0.4
			c0-0.1,0-0.3,0-0.5c0-0.2,0-0.4,0-0.5c0.1-0.7,0.5-1.1,1.3-1.2c1.3-0.1,2.5-0.2,3.8-0.4c1.7-0.2,2.9-0.2,3.7-0.1
			c0.5,0,0.9,0.2,1.2,0.4c0.5,0.3,0.7,0.6,0.6,1c-0.1,0.6-0.5,0.9-1.3,0.8c-0.1,0-0.2,0-0.4-0.1c-0.2,0-0.3-0.1-0.4-0.1
			c-1.3-0.1-3.1,0-5.5,0.4c-0.1,0-0.3,0-0.4,0c-0.1,0-0.2,0.1-0.3,0.3c-0.2,0.8-0.5,2.2-0.7,4.5c0,0.3,0.1,0.5,0.4,0.5
			c0.4,0,1,0,1.9-0.1c0.8-0.1,1.4-0.2,1.9-0.1c0.5,0,1,0.2,1.6,0.6c0.1,0.5,0.2,0.8,0.2,1c0,0.4-0.2,0.6-0.4,0.6c-0.2,0-0.5,0-0.8,0
			c-0.1-0.1-0.3-0.1-0.5-0.2c-0.6-0.1-1.3,0-2.1,0c-0.7,0.1-1.4,0.2-2.1,0.2c-0.1,0-0.2,0-0.3,0c-0.1,0-0.1,0.1-0.2,0.3
			c-0.1,0.3-0.1,0.5-0.1,0.7c-0.1,1.2-0.2,2-0.1,2.2c0.1,0.9,0.5,1.4,1.2,1.5c0.6,0.1,1.5,0,2.7-0.3c1.2-0.3,2.2-0.4,2.9-0.3
			C399.2,49.6,399.9,49.9,400.2,50.5z"/>
		<path class="st24" d="M419.4,40.1c-0.1,0.3-0.2,0.5-0.4,0.6c-0.2,0.2-0.4,0.2-0.7,0.1c-0.1,0-0.4-0.2-0.7-0.4
			c-0.4-0.2-0.7-0.4-0.9-0.4c-0.7-0.2-1.2-0.3-1.6-0.4c-0.2-0.1-0.4-0.1-0.4,0c0,0-0.1,0.2-0.2,0.4c-0.2,0.4-0.4,0.9-0.7,1.7
			c-0.8,2.1-1.5,4.4-2.2,7.1c-0.4,1.8-0.5,3.1-0.3,3.9l-0.2,0.6c-0.3,0.1-0.6,0.1-0.8,0.1c-1-0.2-1.6-0.9-1.6-1.9
			c0-0.5,0.1-1.4,0.4-2.7c0.4-1.5,0.7-2.7,1-3.6c0.1-0.4,0.4-1.2,0.9-2.6c0.4-1.1,0.7-2,0.8-2.7l0.2-0.7c-0.2,0-0.7-0.1-1.3-0.1
			c-0.5,0-1-0.1-1.3-0.2c-1.1-0.3-1.6-0.7-1.4-1.4c0.1-0.3,0.2-0.4,0.3-0.4c0.3-0.3,1.6-0.3,3.9,0c1.8,0.2,3.2,0.5,4.3,0.7
			c0.8,0.2,1.4,0.4,1.9,0.8C419.2,39,419.5,39.5,419.4,40.1z"/>
		<path class="st24" d="M427.3,43.5c0,0.1-0.2,0.2-0.4,0.4c-0.1,0.1-0.3,0.4-0.6,0.9c-1.6,3.2-2.9,6.1-3.9,8.6
			c-0.3,0.7-0.4,1.2-0.4,1.7c0,0.4,0,0.9,0.1,1.7c0,0,0,0.1,0,0.1c-0.1,0.3-0.6,0.3-1.3,0l-0.2-0.1c-0.8-0.3-1-1.1-0.7-2.4
			c0.4-1.6,1.1-3.7,2.1-6.3c0.2-0.6,0.6-1.5,1.1-2.8c0.5-1.2,0.9-2.2,1.1-2.8c0.1-0.3,0.4-0.6,0.9-0.8c0.5-0.2,0.9-0.2,1.3-0.1
			c0.3,0.1,0.5,0.3,0.8,0.7C427.3,43,427.4,43.3,427.3,43.5z"/>
		<path class="st24" d="M445,51.2c-0.1,0.3-0.3,0.4-0.5,0.6c-0.2,0.1-0.5,0.1-0.7,0c-0.1-0.1-0.4-0.2-0.7-0.5
			c-0.3-0.3-0.6-0.5-0.8-0.6c-0.6-0.3-1.2-0.5-1.6-0.6c-0.2-0.1-0.4-0.1-0.4-0.1c0,0-0.1,0.2-0.3,0.4c-0.2,0.3-0.5,0.9-1,1.6
			c-1.1,1.9-2.2,4.1-3.3,6.7c-0.7,1.7-1,3-0.9,3.8l-0.2,0.6c-0.3,0-0.6,0-0.8-0.1c-1-0.4-1.4-1.1-1.3-2.2c0-0.5,0.3-1.4,0.9-2.6
			c0.6-1.5,1.1-2.6,1.5-3.4c0.2-0.4,0.6-1.2,1.3-2.5c0.6-1,1-1.8,1.2-2.5l0.3-0.6c-0.2-0.1-0.6-0.2-1.3-0.4c-0.5-0.1-1-0.3-1.3-0.4
			c-1-0.4-1.4-1-1.2-1.6c0.1-0.3,0.2-0.4,0.4-0.4c0.4-0.2,1.7,0,3.9,0.6c1.7,0.5,3.1,1,4.1,1.4c0.7,0.3,1.3,0.6,1.8,1
			C445,50.2,445.2,50.7,445,51.2z"/>
		<path class="st24" d="M457.4,66.4c-1.1,1.9-2.4,3.3-4.1,4.1c-1.9,0.9-3.8,0.9-5.7-0.2c-0.5-0.3-1-0.7-1.5-1.2
			c-1.1-1.2-1.7-2.5-1.7-3.8c0-1.2,0.4-2.5,1.3-4.1c1.1-2,2.5-3.5,4.3-4.4c2.1-1.2,4.1-1.2,6-0.2c1.7,0.9,2.6,2.4,2.7,4.5
			C458.8,62.9,458.3,64.7,457.4,66.4z M455.5,65.2c1.5-2.8,1.5-4.9,0-6.5c-0.2-0.2-0.4-0.3-0.6-0.4c-0.8-0.4-1.7-0.5-2.8-0.3
			c-1.8,0.4-3.5,2-5,4.8c-0.1,0.3-0.3,0.6-0.4,1.2c-0.3,1.2-0.4,2.1-0.2,2.8c0.2,0.8,0.9,1.5,1.9,2.1c1.4,0.8,2.8,0.7,4.2-0.3
			C453.7,67.8,454.7,66.7,455.5,65.2z"/>
		<path class="st24" d="M469.8,80.7c-0.5,0.9-1.3,1.2-2.6,1.2c-1-0.1-2-0.4-3-0.9c-0.9-0.5-1.8-1.3-2.8-2.3c-1.2-1.3-1.6-2.3-1.3-3
			c0.1-0.3,0.4-0.4,0.6-0.5c0.3-0.1,0.6-0.1,0.8,0.1c0.4,0.2,0.7,0.6,0.8,1.1c0.3,0.8,0.5,1.2,0.5,1.3c0.3,0.6,1.2,1.2,2.5,1.9
			c1.2,0.6,1.9,0.7,2.2,0.2c0.2-0.4,0-1.3-0.6-2.7c-0.5-0.9-1-1.8-1.5-2.7c-0.6-1.2-1-2.2-1.1-3c-0.2-1.1,0-2.1,0.6-3.1
			c0.7-1.2,1.7-2.1,3-2.7c1.4-0.6,2.7-0.6,4,0.1c1.1,0.6,1.8,1.4,2.2,2.3c0.4,1,0.4,2,0.1,3.2c-0.2,0.4-0.4,1-0.7,1.9
			c-0.1,0.3-0.1,0.4-0.2,0.6c-0.3,0.5-0.6,0.9-1,1.1c-0.5,0.4-0.9,0.4-1.4,0.2c-0.3-0.1-0.4-0.4-0.5-0.8c-0.1-0.4-0.1-0.7,0.1-0.9
			c0.1-0.2,0.3-0.4,0.6-0.7c0.3-0.3,0.5-0.6,0.6-0.7c1.1-1.9,0.9-3.2-0.3-3.9c-0.7-0.4-1.5-0.4-2.3-0.1c-0.8,0.3-1.4,0.9-1.8,1.6
			c-0.6,1-0.5,2.3,0.2,4c0.7,1.4,1.4,2.7,2.2,4.1C470.1,78.7,470.2,79.9,469.8,80.7z"/>
		<path class="st24" d="M477.5,85.4c-0.6,1.1-1.5,1.3-2.7,0.6c-0.2-0.1-0.6-0.5-1.1-1.1c0-0.4,0.1-0.7,0.2-1
			c0.4-0.8,1.2-0.9,2.2-0.4c0.4,0.2,0.7,0.5,1,0.8C477.6,84.7,477.7,85.1,477.5,85.4z M484.8,73.7c-0.1,0.1-0.1,0.2-0.3,0.3
			c-0.2,0.1-0.3,0.2-0.4,0.2c-0.8,0.6-1.6,1.5-2.4,2.7c-0.3,0.4-1,1.4-2.1,3c0,0.1-0.1,0.2-0.3,0.4c-0.1,0.2-0.3,0.3-0.3,0.4
			c-0.2,0.4-0.4,0.9-0.6,1.6c-0.1,0.1-0.4,0.1-0.7,0.2c-0.2,0-0.4-0.1-0.5-0.2c-0.3-0.2-0.5-0.4-0.7-0.6c0-0.5,0.2-1.1,0.5-1.7
			c0.4-0.6,1-1.5,2-2.7c1-1.1,1.6-2,2-2.7c0.1-0.3,0.3-0.7,0.5-1.2c0.2-0.6,0.4-1,0.5-1.2c0.1-0.1,0.2-0.3,0.2-0.3
			c0.5-0.1,1,0,1.5,0.3c0.3,0.2,0.6,0.4,0.8,0.7C484.9,73.1,484.9,73.5,484.8,73.7z"/>
	</g>
</g>
<g id="birds">
	<g id="white_bird">
		<path class="st25" d="M77.6,77.2c0.7,5.4-0.5,13,0.8,14.3c1.6,1.7,7.9-1.1,12-3.9c4.7-3.2,5.4-5.6,8.5-5.8
			c2.4-0.1,3.4,1.3,7.3,3.5c3.2,1.8,7.2,4,11.6,4.2c6.6,0.4,14.2-3.9,17-5.4c0.7-0.4,2.5-1.5,5-1.5c2.2-0.1,3.6,0.7,5,1.2
			c4.6,1.5,11.4,0.1,12.7-3.1c1.4-3.2-2.5-8.5-6.9-10.8c-3.7-1.9-5.1-0.5-12-1.5c-9.1-1.4-8.8-4.4-15.8-4.6
			c-3.5-0.1-5.6,0.5-8.1,0.6c-1.4,0-2.8-0.1-4.7-0.6c-3.6-1-3.2-2-6.2-2.7c-4.9-1.3-7.1,1.2-17.4,3.9c-7.6,2-11.3,2-12,4.2
			c-0.2,0.7,21.6-0.6,22.8,2.3C98.5,74.3,77.5,76.3,77.6,77.2z"/>
		<polygon points="153.3,81.9 161.4,86.9 155.2,78.4 		"/>
		<polygon class="st25" points="132.4,54.1 115.5,64.7 133.2,66.8 145.6,55.6 154.4,49.8 154.8,46.7 139,51.4 		"/>
	</g>
	<g id="black_bird">
		<path d="M491.9,144.6c0.5,0.7,4-2.2,14.7-5.9c7.2-2.5,10.1-2.6,12.1-2.6c2.2,0.1,2.6,0.4,10.7,2.6c10.2,2.7,10.5,2.4,12.9,3.7
			c2.5,1.3,7.5,3.9,9.5,9.2c1.2,3.1,1.1,6.4,1.1,8.8c-0.1,5.3-1.4,6.6-0.4,8.1c2.1,2.9,9.8,1.1,14.7-1.8c2-1.2,5.2-3.1,5.1-5.5
			c-0.1-2-2.4-2.5-7-7c-1.5-1.5-3.3-3.2-4.8-5.5c0,0-2.9-4.5-3.3-10.3c-0.8-11,8.2-19,9.2-19.8c8.7-7.5,20.5-7.6,26.6-5.7
			c0.7,0.2,2.3,0.8,2.4,0.6c0.2-0.5-7.4-6.3-17.3-8.4c-3.2-0.7-17.3-3.8-23.5,3.3c-2,2.3-2.9,6.9-6.2,7.7c-0.3,0.1-1,0.2-1.8,0
			c-1.9-0.6-2.3-2.8-3.7-5.5c-1.1-2.1-3.1-6-6.2-6.6c-1.5-0.3-3.5,0.2-4.4,1.5c-1.2,1.7-0.1,4.3,0.7,6.2c1.9,4.5,4.4,5.6,4,7
			c-0.6,2.2-7.9,1.7-11.8,1.8C506,121.1,490.7,143,491.9,144.6z"/>
		<polygon class="st26" points="532.7,100.1 532.7,105.3 537.1,103.8 		"/>
	</g>
</g>
<g id="man" class="st27">
	<path class="st28" d="M397.7,131.1c0.2,1.4,0.5,4-0.7,6.8c-1.8,4.3-5.8,5.9-8.3,7c-1.9,0.8-9.3,4-16.5,0.4
		c-1.3-0.7-3.7-1.8-5.5-4.5c-1.1-1.8-1.5-3.5-1.7-4.6"/>
	<path id="head_1_" class="st29" d="M362.1,113c0.1,1.1,0.4,1.7,1.1,6.3c0.6,3.8,0.5,4.4,0.8,5.8c0.5,2.5,1.3,6.8,4.3,9.7
		c5.5,5.4,15.8,3.1,16.8,2.9c1.5-0.3,7-1.7,10.9-6.3c3.7-4.4,3.9-9.1,4-13.4c0.1-3.3,0.2-6.8-1.9-10.7c-0.6-1.2-3.1-5.7-8.8-8.3
		c-0.4-0.2-10.4-4.5-19.2,1C365.5,103,361.8,108.2,362.1,113z"/>
	<path id="ear_1_" class="st30" d="M405.2,119.8c-0.6,0.5-4.3,3.5-5.7,2.5c-0.6-0.4-0.5-1.3,0.4-6.1c1.2-6.7,1.6-7.5,2.4-8.2
		c1.8-1.4,4.8-1.8,6.5-0.3c1.4,1.2,1.3,3.3,1.2,4.3C409.9,116,406.6,118.6,405.2,119.8z"/>
	<g id="hat" class="st31">
		<path d="M368.5,77.5l-4.4,11.4c-0.4,1.2-0.8,2.4-1.1,3.6l-1.6,7.1c-0.5,2.1-1.6,3.9-3.3,5.1l-7.8,4.6c-0.8,0.4-0.7,1.6,0.1,2
			l3.3,1.7h4.3c2.1,0,4.2-0.6,6.1-1.6l16.2-9.2l10.2-0.8c2.2-0.2,4.3,0.8,5.6,2.5l4.6,6.1l-3.9,7.6c-0.3,0.6,0.2,1.2,0.8,1.2
			l2.2-0.3c0.8-0.1,1.4-0.8,1.3-1.6l-0.7-9.8l3.8,0.2c0.5,0,1-0.1,1.4-0.3l9.2-4.7c0.4-0.2,0.8-0.5,1.1-0.9l0.5-0.8
			c0.3-0.5,0.1-1.2-0.5-1.4l-6.4-3.7c-1.9-0.6-4.5-0.4-5.4-2.2l-8.9-16.7c-0.6-1.1-1.7-1.9-3-2l0,0c-2.3-0.2-4.6,0.2-6.7,1.2
			l-1.7,0.8l-5.6,0.4c-0.8,0.1-1.5-0.1-2.2-0.4l-4.3-1.9c-1-0.5-2.2,0-2.6,1.1L368.5,77.5z"/>
	</g>
	<path id="shirt_2_" class="st32" d="M334.1,155.8l-7.5,34.3c-4.1,38.7-3,53.1-1,53.4c1.4,0.3,2.8-4.9,6.6-5.4
		c5.3-0.6,8.6,4.9,10.9,3.8c1.4-0.7,0-5.7,1.1-11.3c1-5.2,3.3-6.1,4.4-11c0.6-2.5,0.9-6.1-0.4-11l1.8-37.9l1.8,31.3l0.4,17.6
		l-0.3,4.5c-0.1,1.5,1.3,2.5,2.7,2.1l20-6.2l0.7-0.2c7.9-1.9,16.2-1.8,24.1,0.3l6.1,1.6l6.6,4l2.2-15.4l-0.9-35.7l3.5,20.3l0.5,1.7
		c2.3,8.1,2.2,16.7-0.3,24.8l-1.9,6.2h0c5.5,0,10.6,2.8,13.6,7.4l0.1,0.1l7-14.2c2.9-6,4.4-12.6,4.3-19.3v0
		c-0.2-10.8-2.3-21.4-6.2-31.4l-2.9-7.3l-6.1-14.2c-1.4-3.2-4.3-5.6-7.7-6.3l-5.5-1.1l-0.4-0.1c-3.8-1.4-7.5-3.1-11-5.1v0l-3.1-4.4
		l-2.6,6.2l-3.9,5.5c-0.9,1.3-2.3,2.2-3.8,2.5h0c-5.6,1.1-11.5,0.8-17-0.9h0l0,0l-2.6-9.8c-0.2-0.8-1.1-1.1-1.8-0.6l-10.1,7.8
		l-13.9,5.2C337.7,148.8,335,152,334.1,155.8z"/>
	<path id="right_hand_2_" class="st33" d="M324.9,250.7l-1.8,7.1l0,6.9c0,0.1,0,0.3,0,0.4l0.3,1.5c0.1,0.6,0.6,1.1,1.1,1.2l0,0
		c0.5,0.1,0.9-0.3,1-0.8l0.4-4l0.4,5.3c0.1,0.7,0.6,1.3,1.2,1.3l0.6,0.1c0.3,0,0.6-0.2,0.6-0.6V264h0.9l0.1,5.7
		c0,0.6,0.4,1.1,0.9,1.1l0.9,0.1l1-0.5l-0.2-6.3h1.1l0.9,5.6c0.1,0.5,0.5,0.9,1,0.8l1.2-0.1c0.6-0.1,1-0.5,1.1-1.2l0.7-10.7l1.9-1.8
		l2.2,7c0.1,0.5,1.2,0.7,1.6,0.4l0.8-0.6l0.4-0.5c1-0.6,0.5-1.8,0.3-2.5l-1.6-4c-0.1-0.6,0.1-3.7-0.1-4.2l-3.6-13.7l0,0
		c-2.1-0.9-4.5-0.9-6.6,0l-4.4,1.9v0C327.5,243.5,325.9,247,324.9,250.7z"/>
	<polygon id="pants_2_" class="st31" points="352,225.3 349.3,258.7 350.1,262.1 352.2,266.4 416.3,289.4 414.5,245.8 409,221.9 
		386.6,217.2 366,220.6 	"/>
	<path class="st31" d="M431.7,251.1"/>
	<polyline id="handkerchief_2_" class="st34" points="419.8,247.8 420.5,266.1 423.7,263.7 428.4,269.3 428.6,261.9 430.9,261.1 
		433.2,262.9 432.5,255 425.9,247.4 419.8,247.8 	"/>
	<path id="left_hand_2_" class="st35" d="M413.3,228.1l2,8.7l1,11l0.2,2.9c0,0,0,0.1,0.1,0.1h1.9l0.5-3.3l-0.1,5.3
		c0,0.7,0.8,1,1.2,0.5l2.6-2.9c0.6-0.6,0.9-1.4,1.1-2.2l1.9-10.6l-0.1-3.5c0-1.6-0.8-3.2-2.1-4.2l0,0c-1.6-1.3-3.6-2-5.6-1.9
		L413.3,228.1z"/>
	<g id="eyes" class="st31">
	</g>
	<g id="head" class="st31">
	</g>
	<path class="st36" d="M340,267.8"/>
	<g id="knife" class="st31">
		<polyline class="st37" points="336.9,250 359.9,286.9 355.1,284 341.3,264.7 		"/>
	</g>
</g>
<g id="blood">
	<path class="st38" d="M223.9,454.1c-3.1-0.8-5.8-0.7-7.5-0.5l-2.1,3.2l-6.1-3.9l-9.1,3.2l-4.1,6.5v9.6l11.1,1.6l3.6,2.3l1.9,9.5
		l5.5,4.4l4.8,1.2l-4.4-5.5l0.1-7l4.7,4.3l1.6,1.2l-2.3-7.1l6.1,4.1c-0.4-0.3-3.9-2.7-3.6-6.1c0.1-0.9,0.5-2.5,1.3-2.7
		c1.2-0.2,1.8,2.5,4.5,4.3c2.7,1.7,6.3,1.7,6.8,0.7c0.4-0.8-1.4-1.9-0.9-3.5c0.3-1,1.3-1.7,2.3-1.9c1.5-0.3,2.2,1,5.1,2.5
		c3.1,1.6,3.9,1,5.6,2.5c0.6,0.5,2.1,1.9,2.4,4c0.2,1.9-0.9,2.8-0.3,3.7c0.9,1.4,4.3,1.2,4.9,0c0.6-1.3-2.1-3.3-1.3-4.4
		c0.5-0.7,1.9-0.2,2.5-1.1c0.7-0.9,0-2.5-0.1-2.8c-1.5-3.4-6.6-2.8-11.9-5.7c-3.3-1.9-1.9-2.5-8.2-8.3
		C232.4,458.5,229,455.4,223.9,454.1z"/>
	<path class="st38" d="M282.1,479.7c0.3-2.8,0.1-5.2-0.1-6.7l-2-1.8l1.9-5.6l-2.4-8l-4.1-3.4l-5.6,0.4l-0.3,10l-1.1,3.3l-5.4,2
		l-2.2,5.1l-0.4,4.3l2.9-4.1l4.1-0.1l-2.2,4.3l-0.6,1.5l4-2.3l-2.1,5.6c0.1-0.4,1.4-3.6,3.4-3.5c0.5,0,1.5,0.3,1.6,1.1
		c0.2,1.1-1.4,1.7-2.2,4.2c-0.8,2.5-0.6,5.7,0,6.1c0.5,0.3,1-1.3,2-1c0.6,0.2,1.1,1.1,1.2,2c0.3,1.4-0.5,2-1.2,4.6
		c-0.8,2.8-0.3,3.5-1.2,5.1c-0.3,0.5-1,2-2.2,2.3c-1.1,0.3-1.7-0.7-2.2-0.1c-0.7,0.8-0.5,3.9,0.3,4.4c0.8,0.5,1.8-2,2.5-1.4
		c0.5,0.4,0.2,1.7,0.8,2.2c0.6,0.6,1.5-0.1,1.6-0.2c1.9-1.5,1.2-6,2.7-10.8c0.9-3.1,1.4-1.8,4.4-7.6
		C280.1,487.4,281.6,484.3,282.1,479.7z"/>
	<path class="st38" d="M218.1,454.1c1.2,4.9,2.5,6.1,3.5,6.2c1.6,0.2,2.2-2.1,4.4-2.3c2.9-0.2,5.6,3.4,6.2,4.2
		c1.8,2.5,2,4.7,2.8,4.6c1.1-0.1,1.1-4.5,2.5-4.8c1.5-0.3,2.3,4.9,6.4,6.6c2.3,0.9,5.1,0.6,5.5-0.4c0.4-1-1.9-2.4-1.6-2.8
		c0.4-0.6,5.3,0.5,5.8,3c0.5,2-2.4,3.2-2.8,6.2c-0.4,2.6,1.3,5.1,3,6.9"/>
	<path class="st38" d="M195.1,417.8c-0.5,2.9,2.4,5.4,4.9,7.5c2.4,2,4.6,3.1,8,4.7c1.2,0.6,6.4,2.9,6.7,2.3c0.5-0.8-7.7-6-7.3-6.7
		c0.4-0.7,7.2,3.4,8,2.3c0.9-1.3-6.7-8.1-7.5-8.8c-6.5-5.7-8.6-5.4-9.3-5.2C197,414.4,195.4,416,195.1,417.8z"/>
	<path class="st38" d="M187.9,430.5c-0.3,1,2.5,2.2,7.4,6.1c3.5,2.9,4.2,4,4.5,3.7c0.8-0.6-2.3-9.5-8-10.6
		C190.1,429.4,188.1,429.7,187.9,430.5z"/>
	<path class="st38" d="M180.3,474.2c0.6-1.3,4.1-0.9,6.2-0.2c1.8,0.6,3,1.4,4.3,2.4c0.4,0.3,4.4,3.2,3.8,4.3
		c-0.2,0.3-0.6,0.3-1.2,0.4c-2.1,0.2-3.8-0.8-3.8-0.6c-0.1,0.2,4.6,2.3,4.3,3.6c-0.1,0.5-0.9,0.8-5.5,1.4c-6,0.9-7,0.8-7.9,0.5
		c-2.6-0.8-5.1-2.8-4.8-4.1c0.4-1.6,5.5-0.8,6.2-2.9C182.6,477.3,179.6,475.5,180.3,474.2z"/>
	<path class="st38" d="M220.5,441.9c-0.9,3.3,3.2,8.1,6,7.8c2.6-0.3,3-5,5.2-4.9c1.8,0,3.2,3.2,4.9,7c1.7,3.8,2.3,6.6,2.9,6.5
		c0.9-0.1-0.3-7.7,1.6-8.3c1.4-0.5,2.6,3.7,6.2,4.9c4.4,1.5,10.9-1.8,11.1-4.9c0.4-4.8-13.6-9.2-13-10.9c0.5-1.3,9.2,2.2,10.4,0.3
		c2.1-3.4-18.9-24.9-29-20.2c-2.4,1.1-4.7,4-4.4,6.5c0.5,4.7,9.8,6.1,9.6,9.1C231.7,437.7,221.7,437.4,220.5,441.9z"/>
	<path class="st38" d="M279.9,443.2c-1.5,4.1,2.4,9.4,5.7,11.9c8.4,6.4,21.8,1.2,21.8-0.3c0-1.1-7.6,0.9-14.5-4.1
		c-5.9-4.2-7.7-10.7-10.6-10.1C280.7,440.9,280,442.8,279.9,443.2z"/>
	<path class="st38" d="M349.6,452.8c-0.9,1,1.8,5.9,6,8.4c3.9,2.3,8,2.1,11.3,1.9c1.7-0.1,5.2-0.3,5.3-1.2c0.1-1-4.2-1.9-12-5
		C352.8,453.9,350.3,452,349.6,452.8z"/>
	<path class="st38" d="M299.6,405.1c-1.2-0.4-4.2,6.4-6.7,12.4c-1.9,4.4-2.7,6.9-2.3,10.1c0.2,1.9,1,5.5,2.6,5.7
		c2,0.3,4.4-5.1,5.4-8.8c0.4-1.5,0.6-2.7,1-10.4C300,405.9,299.9,405.2,299.6,405.1z"/>
	<path class="st38" d="M293.9,383.3c-1.8,0-3.6,1.9-7.3,5.7c-4.6,4.8-5,6.4-5.2,7.3c-0.4,2.3,0,5.6,1.8,6.5c2.3,1.1,5.2-2.5,7-1.3
		c1.3,0.9,0.4,3.3,1.3,3.6c1.8,0.7,6.9-9.3,7.3-10.1c1.9-3.8,2-5,1.8-6C300,386,296.9,383.3,293.9,383.3z"/>
	<path class="st38" d="M263.8,395c0.1-0.8,2.7-1,3.2-1c1.8-0.2,3.2,0.3,3.5,0.5c1.5,0.6,3,1.8,2.9,2.3c0,0-0.1,0.1-0.2,0.2
		C271.7,397.7,263.6,396.4,263.8,395z"/>
	<path class="st38" d="M270.8,406.4c-1.4,0.5-3.7,1.8-3.9,3.6c-0.2,2.7,4.3,6.3,7.8,4.9c2.5-1,4.3-4.3,3.1-6.7
		C276.6,405.8,273,405.7,270.8,406.4z"/>
	<polygon class="st38" points="262.3,430.2 261.5,438.5 261,447.9 265.1,439.3 265.1,430.2 	"/>
	<polyline class="st38" points="271.6,413.7 270.8,422.7 269.5,446.3 271.6,448.9 273.1,438.8 272.4,424.8 274.7,415 	"/>
	<path class="st38" d="M229.1,320.6c-1.1,0-2.1,2.1-1.6,3.1c0.4,1,1.9,0.6,2.2,1.5c0.2,0.7-0.6,1.6-1.5,2.7c-1,1.1-1.7,1.6-1.6,1.8
		c0.2,0.3,2.4-0.9,2.8-0.3c0.3,0.5-0.8,1.4-0.7,2.9c0.1,1.9,2,4,3,3.8c1.6-0.3,1.1-6.3,1.7-6.2c0.5,0,0.5,3.8,1.3,4.1
		c1.3,0.4,5.3-10,2.4-13.5c-0.7-0.8-1.9-1.4-2.6-1c-1.4,0.7-0.6,4.5-1.6,4.7C231.9,324.5,230.7,320.6,229.1,320.6z"/>
	<path class="st38" d="M196.7,313.4c-1.8,0.4-4.1,2.2-3.8,2.7c0.3,0.5,2.9-0.3,3,0.2c0.1,0.4-1.5,1.3-3.4,2.3
		c-1.9,1.1-3.4,1.7-3.3,1.8c0.1,0.2,4.1-1.5,4.6-1.2c0.3,0.2-1.8,1.2-2.2,2.2c-0.5,1.2,1.7,1.9,3.5,1.4c2.6-0.8,4-4.5,5-4.7
		c0.7-0.1-0.5,2.3,0.6,2.2c2-0.2,12.1-8.5,8.9-9.8c-0.8-0.3-2.5-0.2-3.8,0.3c-2.5,1-2.6,3.2-4.2,3.7
		C199.8,314.9,199.3,312.8,196.7,313.4z"/>
	<path class="st38" d="M186,337.4L186,337.4c-1.2,0.3-6.2,1.7-8.9,6.5c-1.3,2.3-1.6,4.5-1.7,5.4c-0.4,3.3,0.4,6.5,0.9,6.4
		c0.6,0-0.2-4.9,3-9.2c1.1-1.5,2.8-3.1,3.5-2.7c0.7,0.4-0.4,2.5,0,5.1c0.6,3.9,4.6,7.4,6.2,6.7c1.1-0.4,1.2-3.1,1.3-8.4
		c0.1-2.4,0-4.4,0-5.7"/>
	<path class="st38" d="M213,340.1c-1.7,1.4-2.6,2.2-2.7,3.5c-0.2,2.1,2,3,1.9,5.9c0,1-0.3,1.9-0.6,2.7c-0.6,1.9-1.5,3.1-1.8,3.5
		c-2.5,3.7-1.4,11.6,0,11.9c0.9,0.1,2-2.6,2.4-3.8c3-7.4,0.2-13,3-14.8c1.1-0.7,2.7-0.6,3.2,0c0.2,0.2,0.4,0.5,0,4.3
		c-0.1,0.7-0.1,0.7-0.1,1.1c-0.1,0.9-0.2,2.3-0.1,3.8c0,1,0.2,3.6,0.5,3.6c0.5,0,0-8,4.6-14.6c0.2-0.3,1.7-2.4,2.2-2.2
		c0.6,0.3-0.4,3.5-1.6,7.8c-1.4,5-2.1,6.5-1.3,7.3c0.8,0.8,2.7,0.5,3.8-0.5c1.3-1.2,0.6-2.9,1.1-7c0.4-2.9,0.8-2.7,1.3-6.2
		c0.6-3.9,0.9-5.8,0-7.3c-2-3.4-7.7-3-8.1-3C217,336.6,214.7,338.7,213,340.1z"/>
	<polygon class="st38" points="276,430.8 276,437.8 275.7,444.8 279.4,435.9 278.1,429.5 	"/>
	<polygon class="st38" points="257.8,335.3 259.9,340.1 261.4,351.1 261.4,356.3 263.5,348.2 263.3,342.2 265.7,339.3 260.7,335 	
		"/>
	<polygon class="st38" points="238.2,372.1 235.1,376.2 238.4,383.4 240.1,376.4 	"/>
	<path class="st38" d="M373.6,367.6c-2.5-0.4-5.8-0.6-9.6,0c-5.1,0.8-8.6,2.5-9.4,2.9c-0.4,0.2-0.9,0.5-1.6,0.9
		c-3.2,1.9-7.1,5.4-6.5,6.9c0.7,1.5,5.6,0,6,1.2c0.3,0.8-1.7,1.8-6.7,5.5c-3.5,2.6-5.2,4-6.7,6.1c-0.6,0.8-1.3,1.9-1.9,3.4
		c-0.9,2.1-1.6,5.2-1,5.5c0.7,0.3,2.2-2.8,5.7-7.2c2.2-2.7,6.8-7.9,13.4-10.5c2-0.8,3.5-1.1,4.8-0.5c2.4,1.1,2.3,4.5,3.6,4.5
		c1.7,0.1,2.5-6.3,4.8-6.5c1.5-0.1,1.8,2.7,4.5,3.8c1.9,0.8,4.9,0.6,6.5-1c2.6-2.6,0.2-7.6,2.6-9.1c1.5-0.9,3.6,0.4,4.1-0.5
		c0.6-1.1-2.7-3.2-2.2-5.7c0.2-1.1,1-1.7,1.6-2.2c1.6-1.3,4-1.9,5.8-1.1c2.8,1.1,3.1,4.7,4.1,4.5c1.2-0.2,2.9-5.4,0.7-8.4
		c-3.4-4.6-15.2-2.1-22.5,1.2c-3.4,1.5-2.6,1.7-5,2.6c-7.6,2.8-14.2,0.2-21.5,2.6c-1,0.3-2.5,0.9-3.6,2.4c-1.4,2-1.2,4.4-1.2,5
		c0.1,1.2,0.4,2.2,0.7,2.9"/>
	<path class="st38" d="M388.4,389L388.4,389c-0.1,0.8-0.4,2.7,0.7,4.6c1.7,3.1,6,4.5,6.8,3.5c0.4-0.4,0.4-1.6-2.4-5.5"/>
	<path class="st38" d="M296.8,323.7c2.4-1.5,10.8,6.4,17.3,15.6c7.1,9.9,5.6,12.3,10.3,16.3c10.3,8.7,26.2,4.3,26.4,6
		c0.1,1.3-9.1,1.4-22.8,6.5c-2,0.8-7.8,3-8.3,2c-0.4-0.8,3.7-2.8,3.8-6c0-2.7-2.9-5.7-4.8-5.3c-2.4,0.5-1.4,6.5-5,8.3
		c-2.3,1.1-5.8,0.2-6.5-1.5c-1.1-2.7,4.3-7.2,4-7.5c-0.2-0.2-3.7,2.4-7.8,6.8c-3.5,3.8-4.1,5.3-6.3,5.8c-0.8,0.2-1.5,0.1-6.8-1.8
		c-5.7-2-6.7-2.6-7.5-2c-1.2,0.8-0.8,2.9-0.3,8.5c0.7,7.4,1,11,0.3,11.3c-1.1,0.4-5.1-5.6-6.3-12.6c-0.5-2.9-1.3-7.8,0.8-13.1
		c1.3-3.3,2.9-4.8,2.3-7c-0.7-2.6-3.2-2.1-5-5c-2.1-3.4,0.4-5.4-1.3-11c-0.1-0.4-0.1-0.3-3.3-7c-2.5-5.3-2.8-6-2.5-6.3
		c0.7-0.6,4.5,2.1,7,6c1.4,2.2,0.9,2.4,2,4c2.7,3.9,8.1,6,12.8,5.3c1.3-0.2,4.1-0.6,5.5-2.8c0.8-1.3,0.7-2.4,0.8-5
		C295.7,326.9,295.8,324.3,296.8,323.7z"/>
	<path class="st38" d="M504.3,454"/>
	<path class="st38" d="M59.3,372l-3.4,5.4c-0.4,0.6-0.3,1.4,0.3,1.9l1.4,1.2c0.5,0.4,0.6,1,0.5,1.6l-1,3.2c-0.2,0.5,0,1.1,0.4,1.5
		l5,4.9c0.1,0.1,0.1,0.1,0.2,0.2l9.7,14.3l0.2-0.9c0.1-0.3,0-0.7-0.2-1l-4.4-7.4c-0.1-0.2-0.2-0.3-0.2-0.5l-0.3-1.8
		c-0.1-0.9,0.6-1.7,1.5-1.7l2.3,0.1c0.1,0,0.2,0,0.3,0l1.2-0.2c0.9-0.2,1.4-1.1,1-2l0,0c-0.5-1.1,0.5-2.2,1.6-2l2.4,0.5
		c0.3,0.1,0.6,0.3,0.8,0.5l4.3,5.6l-2.5-5.1l-1-2.3c0-0.1-0.1-0.2-0.1-0.3l-0.3-1.9c-0.2-1.1,0.9-2,1.9-1.6l2.4,0.9l1.2,0.5
		c0.6,0.2,1.2,0,1.6-0.4l0.2-0.2c0.5-0.6,0.4-1.6-0.3-2.1l-4-2.9l-7.4-5.2l-6.9-4.4c-0.2-0.1-0.4-0.2-0.6-0.2l-4.2-0.6
		c-0.4-0.1-0.9,0.1-1.2,0.4l-2.4,2.2C59.5,371.8,59.4,371.9,59.3,372z"/>
	<polygon class="st38" points="87.7,425.3 88.3,430 90.1,431.8 89.6,435.5 92.6,443.2 102.1,451.1 96.5,444.9 93.7,441.7 
		94.6,440.4 101.2,446.5 94.1,437.3 99.6,442.8 105,442.9 110.8,448.7 109.4,445.1 106.9,441.2 111.9,444 115.5,450.6 121.6,453.9 
		124.4,457 136.2,470.1 140.6,470.4 134,464.7 129,459.7 123.5,451.9 117.1,447.8 114.5,443.1 111.6,439.8 110.3,436.6 108,431.6 
		98.4,426.9 	"/>
	<path class="st38" d="M88.2,453.6c0.6-0.5,2.5,2.5,6.1,3.1c1.8,0.3,2.3-0.3,3.5,0.2c2.4,0.9,2.5,4.1,3.8,7.1
		c2.7,6.3,8.1,5.2,15.4,14.3c2,2.5,3.5,4.9,3.1,5.2c-0.8,0.8-9.7-15.1-22.9-16.2c-3.2-0.3-7.5,0.3-11.1-2.7c-0.7-0.6-3.1-2.5-3-5.2
		c0.1-1.5,1.1-3.4,2.4-3.6c1.3-0.2,2.5,1.3,3,0.9C89,456.3,87.6,454,88.2,453.6z"/>
	<path class="st38" d="M83.3,466c0.6-1.8-0.1-3.1,0.4-3.3c0.4-0.2,0.7,0.5,2,1c1.2,0.5,1.6,0.2,2.3,0.7c0.5,0.4,0.8,0.8,1.2,1.5
		c0.6,1,1.3,2.3,0.9,3c-0.7,1.1-3.8,0.1-4.1,0.9c-0.2,0.6,1.3,1.2,1.2,1.9c-0.2,0.9-3.4,1.6-6.1,0.6c-3.1-1.1-5-4.2-4.5-4.9
		c0.6-0.8,4.3,1.6,6,0C83,466.9,83.1,466.4,83.3,466z"/>
	<path class="st38" d="M68.9,464.7c1-1.3,3-1.3,4.2-0.7c1,0.5,1.4,1.4,2,2.8c0.6,1.3,1.1,2.4,0.6,3.2c-0.7,1.1-2.8,0.7-3.3,0.6
		c-0.7-0.1-2.6-0.5-3.5-2.2C68.8,468.2,67.8,466.2,68.9,464.7z"/>
	<path class="st38" d="M37.4,438.7c1.3-0.1,3.1-0.6,3.6-1.9c1-2.2-1.8-5.6-1.9-5.5c-0.1,0.1,1.1,4.5,4.4,6.4c2.6,1.5,5.7,1.1,6.1,1
		c2.4-0.3,2.9-1.3,4.2-1c1.9,0.5,1.8,2.9,3.9,6.4c3.1,5,6.7,5.7,6.4,8.4c-0.2,1.9-2.2,2.7-1.7,4.5c0.4,1.5,2.1,2,1.9,2.5
		c-0.2,0.5-2.8,0.3-5.1-1c-2.5-1.4-3.8-3.5-3.9-3.3c-0.2,0.2,3,3.1,3,6.8c0,2.5-1.3,5.5-3.5,6.1c-3.3,1-7.5-4-7.8-3.6
		c-0.3,0.4,4.8,4.7,4.1,5.8c-0.7,1.1-7.6,0-11.3-4.5c-1.7-2.1-2.1-4.1-4.4-4.8c-1.7-0.5-2.3,0.4-4.6,0c-0.6-0.1-4.1-0.7-5.2-3.5
		c-0.1-0.3-0.9-2.3,0-3.3c1.8-1.9,8,2,8.7,0.9c0.8-1.1-5.6-6.4-5.2-6.8c0.3-0.4,6.7,4.6,7.1,4.1c0.5-0.6-6.5-7.5-6.2-7.8
		c0.3-0.3,8.4,7.4,8.9,7c0.3-0.2-2.4-2.8-7.8-9.6c-1.1-1.4-2.1-2.6-3.8-3.9c-2.8-2.1-5.9-3.3-6.1-3c-0.4,0.7,16.2,11.5,17.3,10.2
		c0.9-1.1-8.8-11.1-8.7-11.2C29.6,433.7,33.1,438.9,37.4,438.7z"/>
	<path class="st38" d="M54,427.5c-1,1.6,4,7.7,6,7c1.1-0.4,1.5-3,0.6-4.9C59.2,426.6,54.8,426.4,54,427.5z"/>
	<path class="st38" d="M70.5,435.8c1.8,5.8,9,9.4,9.8,8.5c0.5-0.5-1.3-2.8-2.8-4.7c-2.5-3.1-6.2-6.7-7.1-6
		C69.9,433.9,70.3,435.1,70.5,435.8z"/>
	<path class="st38" d="M90,408.9c-0.6,0.3-0.8,1.2-1,2.6c-0.2,1.3-0.5,2.8,0.2,3.9c0.8,1.3,2.2,0.7,5,1.9c0.9,0.4,3.4,1.4,5,3.6
		c1.8,2.6,1.3,5.4,1.9,5.5c0.6,0,1.8-2.5,1.5-5.3c-0.3-3.1-2.5-5.1-5.8-8.2C94.6,410.9,91.5,408,90,408.9z"/>
	<path class="st38" d="M88.3,403.4c-0.7,0.4-1.7,1.1-1.7,1.9c0.1,1.5,4.2,2.8,7.5,2.9c1.7,0.1,3.6,0.1,3.9-0.7
		c0.5-1.3-2.8-4.8-6.3-5C91.3,402.5,89.8,402.5,88.3,403.4z"/>
	<path class="st38" d="M99.9,361.5c0,0,0.1,0.1,0.1,0.1c7.7,8.5,8.2,10.1,7.8,10.8c0,0,0,0,0,0c-0.6,0.8-2.6-0.2-5.3-0.7
		c-2.2-0.4-3.3-0.6-3.9,0c-1.1,1,0.3,3-0.9,4.6c-0.8,1-1.7,0.5-3.6,1.5c-0.3,0.2-2.9,1.6-3.9,4.6c-0.3,0.8-1.1,3.2,0,4.6
		c1.2,1.4,3.3,0.4,6.7,0.9c4.9,0.7,4.7,3.6,8.9,4.3c5.1,0.8,7.2-3.3,11.5-1.7c0.4,0.2,0.6,0.3,4.8,3.8c0,0,5.7,4.7,5.8,4.6
		c0.1-0.1-5.8-4.4-7.9-10.9c-0.3-1-0.7-2.6,0-3.2c1.2-1,4.1,1.6,5.5,0.5c1-0.7,0.6-2.8,0.5-3.4c-1-5.6-8-10.6-11.1-9.1
		c-1.7,0.8-1.4,3.1-3.4,3.8c-2.2,0.7-4.3-1.1-4.8-0.5c-0.3,0.3,0,1.2,2.2,3.9"/>
	<polygon class="st38" points="272.7,275.2 272.5,282.7 269.3,285.7 274.4,289.1 277.6,297.4 275.9,286.8 281.4,286.1 275.9,283.1 	
		"/>
	<polygon class="st38" points="268.2,305.6 274.4,308.1 279.7,310.5 275.2,304.5 	"/>
	<polygon class="st38" points="285.1,279.5 286.3,285.9 290.4,289.8 	"/>
	<polygon class="st38" points="294,294.2 294.5,298.1 299.8,304.5 299.2,296.2 297.5,289.3 	"/>
	<path class="st38" d="M264.6,288.5c-0.6,0.9-4.3,7-4.3,7l7.3-6L264.6,288.5z"/>
	<path class="st38" d="M285.7,257.5c0-0.8,5.7-1.5,7.9-1.5c1.3,0,2.6,0.2,2.6,0.2c0,0,0.8,0.1,1.6,0.3c2.3,0.5,8.4,3.1,8.2,4
		c-0.2,0.5-2.7-0.2-11.7-1.5C287.9,258.1,285.7,258,285.7,257.5z"/>
	<path class="st38" d="M339.7,301.1c-0.3-0.2-1.1,1.2-3.6,3.2c-3.4,2.8-5.6,3.2-5.6,4.7c0,1.3,1.8,2.2,1.3,3.4
		c-0.1,0.3-0.3,0.4-0.4,0.5c-1.7,1.7-8.1,0.1-8.4,0.8c-0.2,0.7,4.5,4.6,8.1,3.2c1.4-0.6,1.8-1.6,4.5-7
		C338.8,303.6,340.1,301.4,339.7,301.1z"/>
	<path class="st38" d="M328.2,336.3c-0.8,1.3,4.1,6.9,7.5,6.2c1.2-0.2,1.9-1.2,3-0.9c1.5,0.5,1.5,3.1,2.6,3.2
		c0.8,0.1,1.9-1.1,1.9-2.1C343.2,339,329.4,334.4,328.2,336.3z"/>
	<path class="st38" d="M383.9,319.2c-1.5-1.4-5.8,0.7-8.1,2.8c-1,0.9-2.6,2.4-2.8,4.5c-0.1,1.3,0.6,2.6,1.9,5.1
		c1.3,2.4,1.8,2.8,2.1,3.6c2.3,4.9-4.9,13.2-5.1,13c-0.1-0.1,2.9-4,7.5-13.9C383.3,326,385.7,320.8,383.9,319.2z"/>
	<path class="st38" d="M360.5,328.4c-0.7-0.7-6.1,2.5-9.2,7.7c-0.6,0.9-2.1,3.7-2.6,7.7c-0.8,7,2.2,13.6,3.2,13.5
		c1.1-0.2-1.3-7.2,1.7-16.2C356.3,333.1,361.2,329.1,360.5,328.4z"/>
	<path class="st38" d="M233.1,269c-0.4,0.2-0.2,3.8,2.1,6.4c1.5,1.8,3,1.8,4.3,3.9c1.2,1.9,1.5,4.1,1.2,4.2
		C240,283.9,233.9,268.7,233.1,269z"/>
	<path class="st38" d="M248.3,279.3c-0.1,0.1,1.3,1.8,1.4,4.4c0.1,1.8-0.4,2.1-0.7,4.8c-0.1,1.4-0.3,4.7,0.2,4.8
		c0.6,0.1,2.9-3.9,2.2-8.1C250.9,281.6,248.5,279.2,248.3,279.3z"/>
	<path class="st38" d="M256.8,275.7c-0.4-0.2-1.3,0.8-2.4,2.1c-1.1,1.2-2.1,2.4-1.8,2.9c0.3,0.5,1.9,0.3,3-0.6
		C257.3,278.8,257.4,276,256.8,275.7z"/>
	<path class="st38" d="M300.6,311.9c-1.2,0.2-2.1,7.2,1.3,10.9c1,1.1,2.8,2.3,3.4,1.9c0.4-0.3,0.4-1.2-0.6-4
		C303.5,317.1,301.7,311.7,300.6,311.9z"/>
	<path class="st38" d="M320.4,316.6"/>
	<path class="st38" d="M440.4,325.6c0.3-1,5-1.2,8.8,0.8c0.8,0.4,2.5,1.3,2.3,2c-0.2,1-4.7,1.3-8.3-0.5
		C442.9,327.7,440.2,326.4,440.4,325.6z"/>
	<path class="st38" d="M472.7,334.8c-0.1-0.3-1.3,0.2-5,0.5c-2.6,0.2-3.9,0.2-5.1,1.2c-0.6,0.5-1.4,1.4-1.2,1.8
		c0.5,1,5.2-0.5,5.6-0.7C469.9,336.8,472.9,335.3,472.7,334.8z"/>
	<path class="st38" d="M448,342c0.4-2.3,23.4-1.9,23.7,0.5c0.1,1.2-5.2,2.9-9.3,3.3C455.1,346.5,447.8,343.3,448,342z"/>
	<path class="st38" d="M507.5,281.5c-6.2-1.6-17-3-17.6-1c-0.5,1.9,7.6,7.9,15.6,7.5c2.5-0.1,4.2-0.9,7.1-0.2
		c4.7,1.1,7.1,4.6,7.6,4.1c0.5-0.4-1.2-3.8-4.3-6.5C513.4,283.2,510.6,282.3,507.5,281.5z"/>
	<path class="st38" d="M480.9,280.3L480.9,280.3c-0.9,0.2-2,0.6-3.3,1.3c-1.8,0.9-3.3,1.7-3.3,2.5c0.1,1.2,3.2,1.5,7.5,3.3
		c2.7,1.2,4.8,2.5,6.1,3.5"/>
	<path class="st38" d="M465.4,290.9c-0.7,0.6,0.7,2,0.8,6.6c0.1,1.8-0.1,2.8,0.5,3.1c1,0.7,2.5-1.5,4.8-1.8c4.4-0.6,8.4,5.7,8.8,5.3
		c0.3-0.2-1.3-3.2-4.5-6.5C472.1,293.8,466.7,289.8,465.4,290.9z"/>
	<path class="st38" d="M488.2,298.7c0.9,1.2,2.9,3.5,6.3,5.1c3,1.4,5.8,1.7,7.3,1.7"/>
	<path class="st38" d="M556.4,317c6.5,1.7,6,2.2,10.2,3.2c10.4,2.5,14.2-0.2,19.7,3.5c3.2,2.1,5.9,5.7,5.1,7
		c-0.9,1.5-5.6-0.5-15.6-2.5c-6.1-1.2-13.4-2.3-21.6-1.9c-10.4,0.5-11.8,2.9-12.1,3.5c-1.7,3.6,3.4,7.8,1.9,9.9
		c-2,2.6-13.6-0.4-14.6-5.7c-0.2-0.8-0.1-1.9,5.4-9.5c3.9-5.4,5.9-8.2,7.6-8.9C545.4,314.1,549.1,315.1,556.4,317z"/>
	<path class="st38" d="M548.8,328.7L548.8,328.7c0.3,0.1,0.6,0.3,1.1,0.5c3.4,1.3,7.7,2.4,13.6,2.5c6.8,0.1,6-1.1,9.4-0.6
		c6.8,1.1,11.2,6.5,13.5,9.4c2.5,3.1,6.2,8.8,5,10c-1.6,1.5-8.6-7.8-20.9-9.4c-6.6-0.9-8.3,1.3-15,0.6c-8-0.9-14.1-5-17.9-8.2"/>
	<path class="st38" d="M533.8,275c5-5.3,22.6,0.1,25.8,9.2c1.4,4.1-1,6.1,1,9.5c3.1,5.2,12.7,6.9,19.7,4.5c4.8-1.7,5.1-4.2,9.9-5.4
		c5.8-1.4,13,0.4,13.4,2.9c0.6,4.2-19.4,10.4-31.2,13c-11,2.4-16.7,3.6-22.9,0.6c-8.4-4-11.9-12.5-13.7-16.8
		C533.8,287.9,530.1,278.9,533.8,275z"/>
	<path class="st38" d="M228.2,289.9c-0.2,0-0.3,2.3-0.9,4.8c-1,4.3-2.1,4.6-3.6,9.5c-1.2,3.9-0.9,5.1-2.2,6c-1.7,1.2-3.1-0.1-5.7,1
		c-2.1,0.9-4.2,3-4.7,5.5c-0.5,2.9,1.7,3.7,1.4,7.1c-0.3,3.2-2.4,4.2-1.7,5.5c0.9,1.9,6.4,2.3,8.5-0.2c2.2-2.5-0.8-6.3,1.6-8.8
		c0.6-0.6,1-0.7,6-1.7c4.9-1,7.3-1.5,8.3-2.6c1.1-1.1,0.5-1.6,1.7-5.2c0.5-1.5,1.7-4.9,4.1-8.3c2.5-3.5,4.4-4,4.1-5.5
		c-0.3-1.9-3.3-3.6-6-3.6c-5,0-7.6,5.8-9.7,4.8C227.2,297.4,228.5,290,228.2,289.9z"/>
	<path class="st38" d="M210.7,272.7c-0.8,1.5-1.6,2.9-1.2,4.5c0.2,0.9,1.3,1.8,3.5,3.6c1.3,1.1,2,1.7,2.2,1.6
		c0.4-0.3-1.4-2.3-2.1-5.7c-0.7-3.5,0.1-6-0.5-6.2C212.1,270.3,211.1,272.1,210.7,272.7z"/>
	<path class="st38" d="M218,267.9c-0.3,0.1-0.2,0.7-0.6,2.5c-0.4,2.1-0.9,2.8-0.7,3c0.4,0.3,2.4-0.6,2.8-2.2
		C219.9,269.5,218.5,267.7,218,267.9z"/>
	<path class="st38" d="M211.1,296.3c-3.4-0.7-6.6,3.6-9.3,7.3c-2,2.7-3.1,4.2-2.6,5.4c1.4,3,14.4,3,16.6-2.9
		C217,302.4,214.4,297,211.1,296.3z"/>
	<path class="st38" d="M177.8,296c-0.8-0.9-4.6,1.4-10,4.7c-6.1,3.7-11.2,6.8-10.7,8.1c0.6,1.5,8.2,1.1,14-2.9
		C175.7,302.5,178.7,297,177.8,296z"/>
	<path class="st38" d="M179.3,300L179.3,300c-5.4,2.9-6.7,5.3-6.7,7.1c0,4.5,7.9,6.4,7.6,10.9c-0.2,2.6-3.1,4.8-5.7,6.7
		c-2.4,1.8-4.2,2.3-6.4,4.8c-0.3,0.3-2.6,3-2.1,3.6c0.5,0.6,2.8-1,9-4.3c6.8-3.7,8.7-4.4,11-7.1c1.5-1.7,3.5-3.9,2.9-6
		c-0.6-2.1-3.2-1.9-4.8-4.8c-1.2-2.1-1.1-4.4-1-5.9c0.1-2.3,0.7-4.1,1.2-5.2"/>
	<path class="st38" d="M255,243.9c-0.2-0.5-5.2,1.5-8.5,2.9c-1.9,0.8-3.1,1.4-3,1.8c0.2,0.8,4.7-0.7,7.1,1.6c1.5,1.5,1,3.4,2.2,3.7
		c1.4,0.4,3.7-1.7,3.6-3.4c-0.2-2-3.7-2.4-3.7-4.1C252.7,245,255.2,244.3,255,243.9z"/>
	<path class="st38" d="M266.4,244.2c-0.3,0.5,1.6,1.6,1.4,3.3c-0.1,0.8-0.6,1.3-0.7,1.5c-0.7,0.8-1.6,0.9-1.6,1
		c0.1,0.2,4.1-0.9,4.4-0.3c0.2,0.6-3.4,2.3-3.3,2.6c0.1,0.3,4.8-0.1,5.5-2.9c0.5-1.9-1.1-3.7-2.3-4.5
		C268.4,244,266.7,243.7,266.4,244.2z"/>
	<path class="st38" d="M245.5,256.1c2.5-1.2,4.5,0.9,8.6,1.9c9.6,2.3,19.6-4.5,19.5-4.8c-0.1-0.4-15.7,2.9-16.6,9.1
		c-0.4,2.8,2.3,4.5,1.3,6.7c-1.2,2.5-6.1,2.9-9.5,1.9c-1.1-0.3-4.7-1.4-6.2-4.8C241,262.3,242.7,257.4,245.5,256.1z"/>
	<path class="st38" d="M387.3,195.9c-2.2,1.3-2.9,3.7-3,4.2c-1.3,4.8,3.4,9.6,5.6,11.8c3,3.1,8.3,7,10.4,5.6
		c1.7-1.2,0.1-5.1,1.6-5.8c1.8-0.9,4.9,4.7,7.6,3.9c1.9-0.5,3.4-4.1,2.3-6c-1.4-2.4-5.5,0.1-10.4-2.8c-1.9-1.1-4.7-3.6-6.5-6.9
		c-1.2-2.3-1.4-3.9-3-4.6C389.9,194.4,387.7,195.7,387.3,195.9z"/>
	<path class="st38" d="M457.8,208.9c-1.1-0.5-4.6,2.9-5.5,7c-0.6,3,0.1,6.6,1.3,6.8c1.3,0.2,3.1-4.4,3.8-6.8
		C457.5,215.3,459.1,209.5,457.8,208.9z"/>
	<path class="st38" d="M363.7,190.4c-0.2,3.5,1.9,5,1.2,6.9c-0.3,0.9-0.8,0.9-2.5,2.3c-3.8,3.2-3.5,5.4-5.6,6
		c-3,0.9-5.8-2.9-6.7-2.1c-0.9,0.7,0.7,4.7,3.2,7.9c3.1,4,9.9,9.5,13.9,7.2c3.1-1.8,4-7.9,1.9-10c-1.6-1.6-4.4-0.5-4.9-1.6
		c-0.6-1.4,3.9-3,5.3-7.4c1.2-3.8-0.5-7.3-0.9-8.1c-1-1.9-2.9-4.3-3.9-3.9C363.8,187.9,363.7,189.6,363.7,190.4z"/>
	<path class="st38" d="M346.8,182.5c-0.2-1.2,0.3-2.2,0.7-3c0.4-0.9,1.2-2.4,2.5-2.8c1.3-0.3,1.9,0.8,3,0.7c3.1-0.2,5-9.7,4.9-9.7
		c-0.1,0-3.5,11-2.3,11.6c0.8,0.4,2.4-3.8,4.9-3.7c2.3,0.1,5.2,3.6,4.2,6.7c-0.7,2-2.9,3.5-4.9,3.2c-2.6-0.3-3.2-3.6-6-3.7
		c-0.2,0-1.7,0-2.8,0.9c-1.3,1.2-0.9,2.8-1.6,3C348.5,185.9,347,184.3,346.8,182.5z"/>
	<path class="st38" d="M323.8,200.6c-0.7,7.7-1,7.5-0.9,10.2c0.1,3.4,0.1,5.8,0.9,6c0.9,0.2,2.4-2.9,4.2-6.9
		c1.9-4.3,1.9-5.3,1.9-5.8c-0.3-3.7-4-6.8-5.3-6.3C324.1,198,324,198.6,323.8,200.6z"/>
	<path class="st38" d="M349.5,213.2c-0.7,3.4-1.8,3.8-2.8,7.3c-0.9,3.3-0.9,6.2-0.5,6.3c0.6,0.1,1-6.6,5-8.3c1.9-0.8,3.6,0.1,4.3-1
		c0.6-1-0.4-2.6-1.5-4.5c-0.7-1.2-2.4-4.1-3.5-3.8C349.8,209.4,350,210.7,349.5,213.2z"/>
	<path class="st38" d="M351.6,230.8c-2.6,2.4-4.1,2.5-4.3,3.8c-0.3,1.7,2,4.3,3.8,4c3.3-0.5,4.8-10.8,3.8-11.3
		C354.4,227.1,354,228.6,351.6,230.8z"/>
	<path class="st38" d="M412.3,163.5c-1.2-0.3-2.8,1.5-3.5,3.2c-1.5,4.1,3.1,7.8,1.6,10c-1.4,2.1-6.4-0.3-7.9,1.9
		c-1.6,2.4,3.3,7.2,1.6,9.3c-1.1,1.4-4-0.2-5.3,1.4c-1.2,1.4-0.2,4.5,1.4,6.3c2.2,2.5,6.4,3.4,8.6,1.9c2.6-1.9,1.1-6.5,3.7-7.6
		c1.4-0.6,3,0.3,3.2-0.2c0.3-0.7-3.3-2-4.2-4.9c-0.7-2.5,1.3-3.9,2.5-7.6C416.1,171,414.4,164,412.3,163.5z"/>
	<path class="st38" d="M454.3,261.4c-0.9,0.5-0.4,2.8-0.3,3.8c0.4,2.2,1.7,5.4,3,5.3c1.1-0.1,2.3-2.8,1.8-5
		C458.2,262.8,455.3,260.9,454.3,261.4z"/>
	<path class="st38" d="M448.1,260.2c-0.7,0.3,1.1,3.1,0.6,7.4c-0.1,0.5-0.2,1.3,0.2,2.1c0.6,1.5,2.4,2.7,3.3,2.3
		c1.2-0.6,0.8-4.3-0.3-7C450.7,262.2,448.7,259.9,448.1,260.2z"/>
	<path class="st38" d="M372.2,249.2c-3.5-0.3-6.9,3.4-6.5,5.8c0.2,1.3,1.4,1.2,3,3.3c2.2,2.8,1.1,4.7,3,7.5c1.6,2.2,4.3,3.9,5.3,3.3
		c1.3-0.9-2.4-5-1.5-11.3c0.4-2.8,1.5-4.4,0.5-6.3C374.9,249.5,372.4,249.2,372.2,249.2z"/>
	<path class="st38" d="M369.5,279.7c-1.1,1.4,0.6,4.8,2.5,6.5c1.4,1.3,2.8,1.5,3,1.6c0.7,0.1,1.9,0.3,2.7-0.3c1.3-1.1,0.9-4.2-0.5-6
		C375.2,278.8,370.7,278.2,369.5,279.7z"/>
	<path class="st38" d="M382,293c-0.3-0.2-4-3.4-6.3-2.3c-2.3,1.2-2.2,6.6,0,9.8c3.7,5.4,13.9,5,14.8,2.8c0.8-1.9-4.9-5.9-8.3-7.8
		c-5.8-3.2-13.3-4.6-14.3-2.8c-0.3,0.5-0.2,1.5,1.8,3.8"/>
	<path class="st38" d="M420.2,258.4c-0.3,1.1-0.2,2.3,0,4.6c0.3,3,0.5,3.3,0.7,3.5c0.4,0.4,1.2,0.3,1.7-0.7c0.6-1.3,0.3-3.2,0.9-4.2
		c0.4-0.7,0.8,0,1-0.5c0.5-1-0.9-4.6-1-4.9c-0.5-1.4-0.7-1.5-1-1.4C421.8,254.9,420.7,256.6,420.2,258.4z"/>
</g>
</svg>
